<?xml version="1.0" encoding="UTF-8"?>
<svg enable-background="new 0 0 631.104 323.379" viewBox="0 0 100.16207 142.7999" xmlns="http://www.w3.org/2000/svg">
 <path d="m54.91624,1.82743c.132-.131.154-.307.067-.471-.123-.234-.515-.279-.673-.068-.11.148-.106.321 0,.472 .138.194.436.234.606.067" fill="#800080"/>
 <path d="m66.56224,28.14943c.295-.053.442-.181.741-.202 .344-.024.537.203.875.135 .371-.075.58-.236.808-.539 .155-.206.166-.368.269-.605 .192-.442.262-.709.471-1.144 .168-.351.282-.538.471-.877 .179-.317.288-.492.472-.807l.134-.135c-.269-.211-.296-.445-.471-.741-.196-.333-.127-.696-.471-.874-.28-.145-.518.123-.807,0-.224-.096-.258-.293-.472-.404-.307-.159-.583.049-.875-.135-.254-.158-.244-.412-.471-.605-.196-.167-.355-.256-.558-.328l.019.193c-.131.289-.193.457-.336.74-.123.24-.234.355-.337.605-.281.682-.301,1.168-.135,1.885 .104.447.37.631.472,1.078 .081.359.163.586.067.942-.08.295-.246.411-.404.673l-.539.875h-.067c.213.126.297.283.538.336 .233.053.372-.024.606-.066" fill="#800080"/>
 <path d="m56.59924,15.29143c-.177-.093-.277-.154-.471-.203-.436-.109-.732.313-1.145.135-.256-.109-.488-.197-.538-.471-.058-.315.361-.372.471-.673 .118-.322.207-.563.067-.875-.146-.326-.417-.388-.74-.539-.249-.116-.401-.166-.673-.202-.34-.043-.534.041-.876.068l.068-.068c-.132.027-.206.096-.337.068-.182-.038-.261-.168-.336-.337-.12-.268-.029-.497.135-.741 .222-.332 1.031-.013.942-.403-.054-.236-.262-.282-.472-.404-.194-.113-.314-.183-.538-.203-.365-.031-.548.174-.875.337-.19.095-.271.201-.472.27-.347.119-.595-.121-.942,0-.234.081-.313.232-.539.336-.249.115-.453.039-.672.202-.246.183-.14.519-.405.673-.401.236-.715-.155-1.144-.336-.357-.151-.546-.266-.875-.472-.161-.099-.229-.197-.404-.269-.34-.14-.576-.008-.943,0-.499.011-.779.075-1.279.068-.58-.008-1.152.342-1.481-.135-.181-.263-.017-.511-.134-.808-.079-.197-.114-.327-.27-.471-.257-.238-.527-.162-.875-.203-.365-.042-.665.243-.942,0-.317-.276.256-.744 0-1.076-.165-.214-.34-.292-.606-.337-.321-.054-.75-.117-.808.202-.05.275.312.309.471.538 .121.175.305.263.269.472-.042.244-.31.24-.538.336-.39.166-.693-.041-1.077.135-.306.141-.417.322-.673.538-.298.253-.453.937-.741.674-.212-.196.085-.464 0-.741-.056-.181-.238-.266-.339-.385l-.2.049c-.419.131-.781.01-1.077.336-.256.284-.187.569-.269.942-.069.313-.053.5-.134.809-.094.354-.143.565-.337.875-.168.268-.524.29-.539.606-.017.353.443.36.606.673 .149.288.096.501.202.807 .122.356.321.509.404.875 .086.385-.047.62 0,1.01 .059.488-.018.873.336,1.212 .283.27.563.251.943.337 .692.156 1.114-.089 1.818,0 .399.051.688-.039 1.01.202 .297.224.219.571.345.876 .029.07.068.137.126.201 .137.152.221.245.403.336 .375.191.658,0 1.078,0 .499,0 .785.074 1.279,0 .321-.047.505-.319.807-.201 .157.061.238.133.337.27 .31.422-.262.775-.403,1.278-.117.417-.183.653-.27,1.077-.103.494-.289.781-.202,1.279 .059.336.181.504.336.809 .199.389.682.511.607.941-.064.366-.601.31-.674.674-.058.293.056.48.203.74 .229.407.694.344.942.74 .189.303.19.527.269.875 .082.363.047.582.134.943 .136.559.207.619.27.807l.135.202c.392.161.593.325 1.01.404 .412.079.677.13 1.077,0 .444-.146.574-.452.942-.74 .472-.37.757-.554 1.212-.942 .297-.254.5-.367.74-.674 .29-.369.76-.662.539-1.077-.224-.42-.893.219-1.211-.134-.3-.332-.018-.7-.068-1.145-.039-.344-.026-.547-.135-.875-.155-.471-1.102-.829-.673-1.078 .16-.093.286-.064.471-.066 .35-.006.529.148.875.201 .261.041.415.014.674.068 .187.037.297.057.471.135 .307.137.337.526.673.538 .427.015.353-.626.74-.808 .196-.092.332-.07.54-.135 .381-.119.566-.266.942-.404 .233-.086.387-.083.606-.202 .277-.151.387-.31.605-.538 .232-.244.329-.411.539-.674v-.066c-.158-.421-.261-.652-.404-1.077-.147-.442-.269-.685-.337-1.146-.028-.191-.085-.37-.122-.537-.053-.244-.062-.465.122-.674 .254-.286.606-.088.943-.27 .198-.107.436-.113.472-.337 .037-.238-.331-.241-.405-.471-.089-.279-.003-.481.135-.741 .175-.329.446-.377.74-.605 .207-.161.443-.16.539-.404 .068-.17 0-.287 0-.47v-.336" fill="#800080"/>
 <path d="m71.88023,97.75743c-.259-.305-.223-.585-.404-.941-.207-.41-.185-.825-.606-1.011-.217-.095-.38.011-.605-.067-.353-.121-.422-.41-.74-.605-.201-.123-.332-.158-.539-.27-.269-.146-.461-.184-.673-.402-.245-.254-.079-.673-.404-.809-.271-.113-.525-.066-.741.134-.112.104-.061.277-.202.337-.238.1-.168-.367-.269-.605-.111-.261-.069-.472-.269-.674-.184-.184-.356-.203-.606-.27-.23-.061-.369-.075-.606-.066-.268.008-.411.082-.673.135l-.538-.271-.135.271c-.106.131-.231.172-.27.336-.044.186.103.283.135.471 .079.47-.134.737-.135,1.212-.001.344.068.533.067.875 0,.477-.235.747-.134,1.212 .067.311.276.43.337.74 .05.258.028.412 0,.674-.036.322-.184.483-.203.807-.014.265.003.419.068.675 .078.308.206.451.336.74l.27-.067c.25-.104.394.168.606.336 .145.117.171.252.336.338 .188.096.33.031.539.066 .238.041.369.082.606.136l.875.403c.236.184.314.403.606.472 .316.073.505-.085.808-.202 .218-.086.304-.271.538-.27 .2.002.292.113.471.201 .189.094.263.236.471.271 .41.064.521-.392.876-.606 .231-.141.39-.172.606-.337 .28-.214.491-.339.606-.673 .092-.273-.085-.465 0-.74 .124-.41.493-.461.74-.809 .153-.215.26-.394.351-.58l-.149.042c-.525-.24-.973-.17-1.347-.609" fill="#800080"/>
 <path d="m39.63423,54.33643 .214.015-.012-.015h-.202" fill="#dbe2f3"/>
 <path d="m61.24424,67.73343c-.131-.222-.097-.413-.269-.606-.277-.309-.746-.016-1.01-.336-.223-.27-.224-.525-.202-.875 .018-.273.346-.44.202-.674s-.409-.09-.673-.133c-.65-.108-1.026-.083-1.683-.136l-.808-.27c0-.063.001-.117.002-.168 .005-.17.013-.305-.002-.505-.024-.319.027-.532-.135-.809-.181-.308-.57-.224-.74-.538-.242-.443.326-.79.202-1.279-.05-.193-.141-.281-.202-.471-.098-.305.014-.525-.135-.809-.139-.262-.281-.389-.538-.539s-.447-.147-.741-.201c-.337-.061-.564.076-.875-.068-.254-.115-.314-.305-.539-.471-.247-.182-.404-.258-.673-.403-.382-.208-.638-.247-1.01-.472-.306-.184-.409-.405-.741-.538-.248-.101-.405-.142-.673-.134-.241.004-.364.156-.605.134-.257-.022-.406-.106-.606-.27-.219-.181-.19-.419-.404-.604-.276-.241-.635-.063-.875-.338-.247-.283-.139-.572-.203-.943-.074-.443-.094-.697-.133-1.143-.038-.421-.057-.657-.068-1.078-.01-.34.031-.535 0-.875-.017-.186.099-.392-.067-.471-.159-.077-.241.135-.404.201-.278.113-.444.17-.741.201-.209.023-.33-.027-.538,0-.363.049-.586.113-.876.338-.282.219-.257.521-.539.74-.12.094-.198.136-.336.202-.339.161-.652-.037-.943.201-.129.108-.156.212-.269.337-.211.234-.315.414-.605.539-.411.176-.698-.039-1.145-.068l-.796-.052c.232.304.452.434.594.793 .108.272.043.462.135.74 .132.403.406.54.539.942 .107.328.096.533.134.875 .055.497.107.781.067,1.279-.026.318-.141.488-.135.809 .008.35.068.551.203.875 .117.283.445.369.404.674s-.406.293-.607.537c-.246.301-.478.488-.471.875 .008.402.346.525.539.875 .14.258.257.393.337.674 .029.105.048.201.063.295 .006.033.009.064.012.098 .007.066.01.131.009.193 0,.033 0,.065-.003.098-.001.013-.004.025-.006.037l-.075-.047 .075.056c-.019.174-.062.349-.143.551-.148.363-.344.514-.606.807l.225-.179c.367.235.363.237.718.493 .242.175.353.47.55.695 .215.249.707.649.964.854 .295.234.619.627.943.818 .557.328.25.197.46.809 .234.682.234.145.281.863 .025.393.221.656.393,1.01 .129.269.484.18.65.426 .219.324.279.221.337.606 .061.417.008.663-.068,1.077-.054.294-.117.453-.202.74-.118.398-.341.596-.336,1.01 .004.358.141.543.269.875 .113.297.205.453.337.741l.134-.067c.126-.126.211-.245.301-.354 .099-.118.202-.227.372-.319 .286-.154.484-.216.808-.201 .4.019.572.254.942.403 .34.138.552.168.876.337 .219.115.298.396.539.338 .198-.051.197-.254.336-.404 .24-.26.352-.459.673-.607 .267-.122.447-.129.741-.134 .319-.005.544-.045.808.134 .169.116.205.248.336.405l.202-.135c0-.21-.008-.329 0-.54 .011-.288.045-.452.068-.74 .039-.523-.005-.824.067-1.346 .078-.562.064-.916.336-1.413 .197-.36.328-.587.674-.809 .279-.179.493-.163.808-.268 .526-.181.809-.325 1.346-.473 .338-.093.526-.169.875-.202 .58-.054.923.033 1.481.202 .383.116.617.171.942.403s.411.453.674.74l-.068.068c.263,0 .533.222.674,0s-.222-.352-.27-.605c-.085-.45.192-.693.27-1.145 .085-.494.072-.781.135-1.279 .045-.369.251-.591.134-.943-.084-.246-.272-.31-.404-.536" fill="#800080"/>
 <path d="m53.97324,12.26143c.179.044.323.109.472,0s.048-.3.134-.471c.11-.216.355-.234.404-.472 .043-.211.038-.406-.134-.538s-.338-.061-.539,0c-.216.067-.409.12-.471.337-.053.184.163.282.134.471-.036.239-.497.248-.403.471 .068.163.232.161.403.202" fill="#800080"/>
 <path d="m99.54923,44.64143c-.086-.412.049-.693-.135-1.076-.112-.236-.221-.35-.403-.539-.289-.299-.478-.484-.876-.605-.377-.114-.617.031-1.01,0-.451-.037-.822.117-1.143-.201-.151-.15-.107-.338-.27-.472-.226-.187-.494.025-.74-.134-.191-.123-.234-.281-.346-.455-.018-.028-.036-.057-.059-.084-.205-.268-.333-.407-.538-.674-.161-.209-.223-.348-.404-.539-.271-.286-.497-.363-.808-.605-.266-.206-.389-.359-.673-.538-.249-.157-.464-.13-.673-.337-.193-.189-.117-.449-.337-.605-.299-.215-.578-.051-.942,0-.38.051-.569.191-.942.271-.415.085-.657.177-1.078.134-.298-.033-.457-.107-.74-.202-.268-.091-.405-.181-.674-.271-.308-.101-.501-.096-.808-.201-.355-.123-.499-.418-.875-.403-.133.005-.205.036-.336.067-.461.105-.722.191-1.145.403-.189.094-.273.347-.471.27-.252-.098.278-.342.336-.606 .063-.283.061-.48-.067-.74-.115-.233-.301-.275-.471-.471s-.202-.371-.404-.539c-.262-.22-.54-.125-.808-.337-.19-.15-.209-.327-.403-.471-.407-.3-.839.043-1.28-.202-.276-.154-.314-.417-.606-.538-.268-.112-.455-.012-.74-.068-.269-.052-.401-.173-.673-.202-.369-.041-.647-.09-.943.136-.179.136-.216.28-.337.47-.219.348-.199.635-.47.943-.199.225-.384.271-.606.471-.166.15-.224.273-.405.404-.19.139-.304.248-.538.271-.159.013-.294.048-.404-.067-.127-.134 0-.288 0-.473l-.067.068c.131-.158.159-.303.337-.404 .206-.119.386.025.605-.066 .325-.139.413-.379.607-.674 .218-.334.241-.576.403-.942 .128-.29.433-.438.336-.74-.051-.161-.133-.237-.268-.337-.277-.203-.537-.019-.876-.068-.264-.038-.406-.116-.673-.135-.316-.021-.492.055-.808.068-.341.014-.535-.023-.875,0-.238.016-.411-.07-.606.066-.174.122-.197.272-.269.472-.143.396.034.659 0,1.077-.018.211.059.369-.068.539-.174.234-.48-.002-.74.135-.182.096-.244.209-.404.336-.206.164-.287.326-.539.404-.277.084-.47-.067-.74-.067-.26,0 .295-.28.471-.472 .164-.178.235-.299.405-.471 .194-.199.371-.248.538-.471 .219-.293.184-.543.337-.877 .161-.352.209-.589.47-.875 .256-.278.572-.242.808-.538 .062-.077.102-.151.132-.227 .074-.185.087-.368.205-.581 .228-.408.572-.506.741-.943 .124-.322.332-.591.134-.875-.148-.212-.369-.164-.606-.269-.366-.16-.739-.06-.942-.403-.148-.25-.032-.453-.067-.74-.046-.371-.02-.662-.083-.955-.032-.148-.087-.299-.187-.459-.127-.207-.288-.26-.404-.472-.202-.372-.115-.653-.135-1.077-.01-.236.121-.402 0-.605-.144-.244-.449-.096-.673-.27l-.134.135c-.184.314-.293.489-.472.807-.189.339-.303.526-.471.877-.196.407-.27.668-.437,1.064l-.034.079c-.103.237-.114.399-.269.605-.228.303-.437.464-.808.539-.338.068-.531-.159-.875-.135-.299.021-.446.149-.741.202-.234.042-.373.119-.606.066-.241-.053-.325-.21-.538-.336-.233-.138-.353-.244-.606-.337-.299-.108-.503-.231-.807-.134-.267.084-.289.348-.54.471-.172.084-.324.013-.471.135-.191.16-.047.41-.202.605-.153.195-.329.206-.538.337l.201-.134c-.472-.132-.734-.453-1.211-.338-.263.063-.375.197-.605.338-.355.215-.482.475-.876.605-.35.117-.623-.115-.942.067-.243.138-.197.49-.472.538-.221.039-.33-.117-.538-.201-.295-.121-.499-.133-.74-.337-.262-.222-.351-.421-.472-.741-.132-.347.137-.689-.135-.941-.146-.137-.329-.061-.471-.203-.219-.219-.066-.469.047-.752 .041-.104.077-.213.088-.325 .035-.366-.081-.604.067-.942 .091-.207.202-.289.337-.471 .178-.24.509-.309.471-.605-.036-.277-.344-.271-.539-.473-.235-.24-.444-.35-.538-.672-.089-.305.112-.495.067-.809-.027-.189-.004-.332-.135-.471-.236-.252-.533.082-.875.135l-.067.201c-.21.263-.307.43-.539.674-.218.229-.328.387-.605.538-.219.119-.373.116-.606.202-.376.139-.561.285-.942.404-.208.064-.344.043-.54.135-.387.182-.313.822-.74.808-.336-.012-.366-.401-.673-.538-.174-.078-.284-.098-.471-.135-.259-.055-.413-.027-.674-.068-.346-.053-.525-.207-.875-.201-.185.002-.311-.026-.471.066-.429.249.518.607.673,1.078 .109.328.096.531.135.875 .024.213-.029.41-.057.594-.03.197-.031.379.125.551 .318.353.987-.286 1.211.134 .221.415-.249.708-.539,1.077-.24.307-.443.42-.74.674-.455.389-.74.572-1.212.942-.368.288-.498.595-.942.74-.4.13-.665.079-1.077,0-.417-.079-.618-.243-1.01-.404-.316-.13-.593-.071-.808-.336-.173-.214-.108-.416-.202-.673-.148-.408-.046-.924-.472-1.01-.31-.064-.451.205-.74.336l-1.481.135c-.499-.053-.832-.361-1.279-.135-.183.094-.276.176-.404.336-.254.32-.502.676-.269,1.011 .175.253.571.013.74.27 .132.196.166.389.067.605-.154.343-.633-.013-.942.202-.144.101-.241.188-.319.312-.03.046-.058.099-.085.159-.138.313-.103.55 0,.875 .108.34.375.424.539.74 .225.436.244.73.336,1.213 .09.467.096.738.135,1.211 .045.551.178.873.067,1.414-.073.358-.244.521-.337.875-.106.41-.034.666-.134,1.078-.092.379-.367.553-.336.941 .014.191.201.293.134.471-.102.273-.451.09-.741.068-.158-.012-.246-.041-.404-.068l-.134.135c-.113.158-.134.313-.262.422-.022.018-.046.035-.074.05-.183.1-.336.022-.508-.05-.092-.038-.19-.076-.301-.084-.261-.021-.425-.088-.673,0-.063.022-.116.051-.162.084-.182.131-.255.333-.444.521-.183.184-.234.361-.47.471-.287.133-.596-.232-.808,0-.196.213.034.454 0,.741-.046.38-.151.579-.27.942-.158.482-.129.838-.471,1.212-.177.192-.374.198-.539.403-.332.414-.106.824-.202,1.348-.047.263-.179.408-.134.672 .054.316.295.406.471.674 .136.207.235.313.336.538 .134.296.047.522.203.808 .133.244.313.31.471.539 .086.125.181.186.202.336 .033.246-.436.313-.337.539 .097.222.372.074.606.135 .265.068.453.039.673.201 .245.184.17.477.404.674 .293.246.563.227.943.27 .261.029.425.085.673,0 .299-.102.369-.328.605-.537 0,0 .539-.203.337.672-.095.412.13.654.135,1.077 .004.343-.301.624-.067.875s.535.027.875,0c.211-.017.327-.071.538-.067 .268.004.411.082.674.135h-.068l1.01.066c.447.029.734.244 1.145.068 .29-.125.394-.305.605-.539 .113-.125.14-.229.269-.337 .291-.238.604-.04.943-.201 .138-.066.216-.108.336-.202 .282-.219.257-.521.539-.74 .29-.225.513-.289.876-.338 .208-.027.329.023.538,0 .297-.031.463-.088.741-.201 .163-.066.245-.278.404-.201 .166.079.05.285.067.471 .031.34-.01.535 0,.875 .011.421.03.657.068,1.078 .039.445.059.699.133,1.143 .064.371-.044.66.203.943 .24.275.599.097.875.338 .214.186.185.424.404.604 .2.163.349.247.606.27 .241.022.364-.13.605-.134 .268-.008.425.033.673.134 .332.133.435.354.741.538 .372.225.628.264 1.01.472 .269.146.426.222.673.403 .225.166.285.355.539.471 .311.145.538.008.875.068 .294.054.482.052.741.201s.399.277.538.539c.018.033.033.068.044.102 .081.236.004.44.091.707 .061.189.152.277.202.471 .124.489-.444.836-.202,1.279 .17.314.559.23.74.538 .162.276.111.489.135.809 .02.261 0,.41 0,.673l.808.27c.657.053 1.033.027 1.683.136 .264.043.532-.095.673.133s-.184.4-.202.674c-.022.35-.021.605.202.875 .264.32.733.027 1.01.336 .172.193.138.385.269.606 .132.227.32.29.404.538 .117.353-.089.574-.134.943-.063.498-.05.785-.135,1.279-.078.451-.355.694-.27,1.145 .048.254.408.387.27.605s-.411,0-.674,0l.135.27c.079.551.301.864.202,1.413-.045.245-.217.358-.202.606 .019.306.239.416.404.673 .102.159.225.22.27.403 .056.236-.226.382-.135.606 .138.345.572.113.943.134 .261.017.41,0 .672,0 .394,0 .621-.062 1.011,0 .213.035.327.085.538.135 .34.083.632-.05.875.202 .256.269.108.573.135.943s-.035.575 0,.942c.025.26-.01.505.013.724 .019.185.081.351.256.487 .234.186.441.195.74.202 .267.007.406-.13.674-.134 .211-.004.357-.044.538.067 .283.173.201.481.27.808 .08.387.121.619.067,1.01-.055.386-.278.557-.337.941-.048.313-.105.512 0,.809l.337-.135c.315.026.516-.055.808.066 .207.089.347.148.471.338 .158.242.037.452.067.74 .044.422.141.654.135,1.078-.004.265.049.436-.067.672-.178.359-.499.4-.876.539-.203.075-.367.002-.538.136-.186.142-.126.352-.269.537-.149.191-.288.247-.472.403s-.305.229-.471.404c-.26.276-.319.5-.538.809-.154.213-.268.313-.405.539-.164.27-.164.476-.336.74s-.329.369-.539.605l-.471.808c-.237.235-.37.37-.605.605l.538.271c.262-.053.405-.127.673-.135 .237-.009.376.006.606.066 .25.066.422.086.606.27 .2.202.158.413.269.674 .101.238.031.705.269.605 .141-.06.09-.232.202-.337 .216-.2.47-.247.741-.134 .325.136.159.555.404.809 .212.219.404.257.673.402 .207.111.338.146.539.27 .318.195.387.484.74.605 .225.078.388-.027.605.067 .421.186.399.601.606,1.011 .181.356.145.637.404.941 .374.438.822.369 1.347.606l.149-.042c.091-.188.166-.383.255-.631 .146-.408.122-.67.269-1.078 .127-.354.105-.646.404-.875 .238-.181.535.017.741-.202 .154-.163.091-.344.201-.538 .185-.322.494-.349.673-.673 .194-.353.115-.618.202-1.011 .095-.422.137-.664.27-1.077 .112-.347.178-.546.336-.875 .216-.446.416-.653.674-1.077 .159-.261.242-.412.404-.672 .279-.453.571-.642.74-1.145 .218-.648 0-1.068 0-1.752 0-.288.066-.459 0-.74-.084-.354-.353-.462-.47-.806-.212-.624-.234-1.1.066-1.685 .12-.234.234-.34.404-.539 .217-.254.355-.385.606-.605 .225-.197.369-.287.606-.471s.392-.262.606-.471c.281-.277.299-.564.606-.809 .294-.234.515-.296.875-.404 .431-.127.74.063 1.145-.134 .351-.171.44-.423.74-.676l.101-.082c.174-.142.302-.237.504-.388 .259-.19.383-.338.674-.471 .272-.125.446-.148.741-.201 .594-.108.945.034 1.548,0 .5-.029.894.188 1.279-.135 .173-.146.209-.286.336-.472 .108-.156.157-.253.27-.404 .188-.253.298-.399.539-.605 .215-.186.429-.183.605-.404 .265-.335.136-.655.202-1.076s-.161-.775.135-1.077c.181-.186.408-.104.605-.271 .173-.146.25-.263.337-.47 .153-.364-.191-.666 0-1.011 .109-.195.228-.268.404-.403 .214-.166.41-.152.607-.338 .571-.541-.026-1.231 0-2.02 .015-.499-.171-.84.066-1.279 .159-.294.494-.291.606-.605 .135-.377-.182-.608-.202-1.01-.016-.342-.081-.566.068-.875 .105-.219.292-.257.404-.472 .28-.539-.146-.941-.202-1.548-.035-.366-.03-.575-.068-.942-.04-.396-.048-.623-.134-1.01-.078-.35-.281-.519-.27-.875 .01-.305.229-.455.309-.707 .016-.051.026-.107.028-.168 .011-.357-.281-.52-.269-.876 .013-.399.116-.664.404-.942 .194-.188.358-.229.606-.337 .228-.099.406-.052.605-.202 .282-.211.202-.52.405-.809 .117-.167.221-.233.336-.402 .225-.33.24-.578.404-.942 .225-.503.362-.784.606-1.279 .103-.211.071-.413.269-.538 .157-.1.301.006.471-.068 .328-.142.328-.451.539-.74 .288-.395.438-.626.74-1.01 .278-.351.45-.535.741-.875 .157-.184.299-.254.404-.471 .148-.309.043-.533.067-.875 .029-.421-.012-.664.067-1.078 .068-.35.176-.53.27-.875 .127-.467.314-.729.26899-1.211-.037-.389-.21799-.571-.33699-.943-.116-.362-.191-.567-.269-.942" fill="#800080"/>
 <path d="m43.33724,29.56343c.094.257.029.459.202.673 .215.265.492.206.808.336l-.135-.202c-.105-.314-.192-.484-.27-.807-.087-.361-.052-.58-.134-.943-.079-.348-.08-.572-.269-.875-.248-.396-.713-.333-.942-.74-.147-.26-.261-.447-.203-.74 .073-.364.61-.308.674-.674 .075-.431-.408-.553-.607-.941-.087-.172-.164-.3-.224-.438-.048-.108-.086-.224-.112-.371-.087-.498.099-.785.202-1.279 .087-.424.153-.66.27-1.077 .141-.503.713-.856.403-1.278-.099-.137-.18-.209-.337-.27-.302-.118-.486.154-.807.201-.494.074-.78,0-1.279,0-.42,0-.703.191-1.078,0-.182-.091-.266-.184-.403-.336-.308-.34-.104-.803-.471-1.077-.322-.241-.611-.151-1.01-.202-.704-.089-1.126.156-1.818,0-.38-.086-.66-.067-.943-.337-.354-.339-.277-.724-.336-1.212-.047-.391.086-.625 0-1.01-.083-.366-.282-.519-.404-.875-.106-.306-.053-.519-.202-.807-.163-.313-.623-.32-.606-.673 .015-.316.371-.338.539-.606 .194-.31.243-.521.337-.875 .081-.309.065-.496.134-.809 .082-.373.013-.658.269-.942 .296-.326.658-.205 1.077-.336l.2-.049c-.05-.06-.08-.127-.065-.221 .025-.15.096-.225.202-.336 .162-.17.342-.14.538-.269 .342-.225.669-.339.741-.741 .037-.209.063-.372-.068-.538-.164-.211-.404-.144-.673-.135-.332.011-.586.022-.808.269-.199.223.005.524-.202.74-.273.288-.649-.033-1.009.136-.354.165-.404.475-.741.673-.4.236-.689.241-1.144.336-.364.076-.659-.106-.943.135-.144.123-.125.281-.269.403-.152.13-.279.147-.471.203-.304.087-.511-.041-.808.067-.267.097-.404.205-.606.404-.49.484-.472.997-.539,1.683-.03.313.205.569 0,.808-.222.26-.587-.119-.875.067-.238.154-.324.333-.403.606-.073.252.12.439 0,.673-.18.347-.742.003-.943.337-.136.226.159.538-.067.672-.214.128-.401-.058-.606-.201v.135c-.052.288-.008.475-.134.74-.136.285-.283.42-.539.605-.19.139-.329.164-.539.27l-.149.133c.075.029.149.062.216.137 .248.276-.034.611.135.942 .127.249.359.282.471.538 .168.386-.061.656-.067,1.078-.008.551.057.861.067,1.414 .008.367.165.613 0,.941-.116.232-.335.25-.471.471-.218.355-.11.657-.121,1.045-.002.053-.006.109-.014.168-.088.686-.226,1.061-.269,1.75-.029.472.317.861 0,1.211-.286.318-.723-.037-1.076.202-.439.296-.545.688-.607,1.212-.021.182.031.291 0,.471l-.067.338c.237.184.405.25.606.471 .245.27.184.582.471.809 .222.175.409.168.673.269 .287.11.471.12.741.27 .294.162.346.459.673.538 .256.063.421.012.673-.067 .259-.079.336-.341.606-.336 .354.006.411.368.673.606l.74.672 .068-.066c.236,0 .381-.072.606,0 .25.078.357.214.538.403 .157.163.226.275.338.472 .138.246.102.445.268.672 .338.468 1.081.097 1.347.607 .099.191.052.338.134.539 .109.262.253.364.404.605 .194.309.24.525.472.807 .141.172.202.309.403.404 .261.125.453-.014.741,0 .264.014.425.158.673.066s.218-.414.472-.471c.243-.053.358.172.606.203 .398.049.753-.512 1.009-.203 .106.129.015.289.135.404 .153.146.327.051.538.066 .314.023.636-.264.808,0 .173.266-.189.461-.337.743-.142.269-.222.425-.403.672-.122.165-.243.222-.337.403-.111.215-.126.363-.135.605-.012.352.123.535.202.875h.067c.158.027.246.057.404.068 .29.021.639.205.741-.068 .067-.178-.12-.279-.134-.471-.031-.389.244-.563.336-.941 .1-.412.028-.668.134-1.078 .093-.354.264-.517.337-.875 .111-.541-.022-.863-.067-1.414-.039-.473-.045-.744-.135-1.211-.092-.482-.111-.777-.336-1.213-.164-.316-.431-.4-.539-.74-.103-.325-.138-.563 0-.875 .099-.221.205-.332.404-.471 .309-.215.788.141.942-.202 .099-.217.065-.409-.067-.605-.169-.257-.565-.017-.74-.27-.233-.335.015-.69.269-1.011 .128-.16.221-.242.404-.336 .447-.227.78.082 1.279.135l1.481-.135c.289-.131.43-.4.74-.336 .426.086.324.602.472,1.01" fill="#800080"/>
 <path d="m69.45723,84.49643c-.03-.288.091-.498-.067-.74-.124-.189-.264-.249-.471-.338-.292-.121-.493-.04-.808-.066l-.337.135c.039.111.092.16.135.27 .133.344.071.574.067.943-.004.314.05.514-.067.807-.173.432-.504.529-.875.809-.274.205-.452.289-.741.471-.21.131-.308.245-.539.336-.391.154-.656.08-1.076.068-.29-.009-.452-.044-.741-.068-.394-.031-.615-.075-1.01-.066-.29.006-.451.057-.74.066-.184.006-.288,0-.472,0l.068.271c-.105-.237-.221-.353-.269-.606-.071-.364-.091-.646.134-.943 .137-.179.326-.163.472-.336 .321-.385.043-.785.134-1.279 .044-.238.043-.381.134-.605 .094-.229.314-.292.337-.539 .028-.292-.097-.502-.337-.673-.197-.14-.376-.058-.605-.134-.368-.125-.528-.299-.876-.473-.462-.229-.712-.401-1.211-.537-.284-.078-.487.012-.741-.136-.31-.179-.291-.481-.539-.741-.393-.408-.756-.467-1.211-.807-.27-.201-.394-.352-.673-.539-.768-.512-1.841.031-2.222-.807-.079-.175-.044-.303-.135-.473-.122-.229-.305-.27-.471-.471-.181-.219-.246-.371-.404-.606v.068c-.131-.157-.167-.289-.336-.405-.264-.179-.489-.139-.808-.134-.294.005-.474.012-.741.134-.321.148-.433.348-.673.607-.139.15-.138.354-.336.404-.241.058-.32-.223-.539-.338-.324-.169-.536-.199-.876-.337-.37-.149-.542-.385-.942-.403-.324-.015-.522.047-.808.201-.17.093-.273.201-.372.319-.09.109-.175.229-.301.354l.404-.336c.08.813.178,1.27.203,2.086 .01.368.139.603 0,.943s-.538.327-.674.672c-.176.446.196.734.202,1.213 .005.423-.025.668-.135,1.076-.119.443-.282.66-.471,1.078-.179.396-.262.629-.472,1.009-.273.498-.499.735-.807,1.212-.434.674-.639,1.081-1.077,1.75-.331.506-.647.721-.876,1.279-.304.748-.211,1.256-.202,2.055v.033c.008.873.152,1.356.27,2.221 .118.868.181,1.359.336,2.222 .139.765.299,1.183.405,1.952 .09.652.024,1.034.134,1.684 .142.836.488,1.247.606,2.086 .077.549.02.863.067,1.415 .039.448.425.8.135,1.144-.137.163-.317.125-.472.27-.37.35-.212.772-.269,1.279-.027.248-.087.466-.122.674-.047.273-.05.528.122.808 .166.269.391.308.606.538 .442.475 1.024.782.876,1.414-.095.398-.48.447-.674.808-.46.856.061,1.521 0,2.491-.019.315-.087.491-.067.807 .033.523.314.765.404,1.28 .04.233.017.374.067.606 .066.3.147.457.27.74 .116.269.235.396.336.673 .183.497-.082.897.202,1.345 .189.299.506.295.673.607 .163.305-.008.561.135.874 .161.356.496.394.673.741 .136.267-.03.551.202.741 .224.184.591-.182.741.067 .146.242-.366.258-.581.438-.054.044-.09.098-.093.168-.018.445.842.125 1.011.539 .098.242-.007.41 0,.672 .009.422-.018.666.067,1.077 .055.269.099.419.201.673 .089.219.344.316.269.54s-.452.051-.537.269c-.099.252.254.35.335.606 .088.276.131.456.068.74-.059.265-.297.338-.336.606-.059.395.32.551.403.942 .109.515.193.89-.067,1.346-.203.356-.755.267-.808.674-.04.313.223.444.337.741 .127.332-.013.655.271.873 .269.211.651-.191.874.068 .205.239-.205.568 0,.809 .223.26.533.057.875.065 .21.007.338-.061.539,0 .216.066.345.151.471.338 .207.304-.048.578 0,.942 .032.24-.026.425.135.605 .165.187.383.09.605.202 .334.167.409.435.741.606 .678.348 1.272.411 1.953.066 .169-.085.228-.196.404-.269 .523-.218.874.161 1.413.337 .348.114.535.205.875.336l.808.404c.156-.276-.085-.547-.336-.74-.253-.195-.677.156-.808-.135-.065-.145.04-.251 0-.404-.071-.27-.313-.309-.472-.539-.12-.174-.191-.273-.269-.471-.191-.49-.196-.859 0-1.346 .092-.23.155-.371.337-.539 .156-.145.336-.106.471-.27 .187-.227.117-.447.135-.741 .021-.341-.073-.532-.068-.875 .004-.29-.052-.476.068-.74 .101-.22.232-.3.404-.471 .238-.237.403-.338.673-.538 .256-.192.495-.205.673-.473 .248-.371.184-.713.067-1.143-.051-.195-.061-.33-.202-.473-.174-.178-.36-.161-.606-.202-.258-.043-.421.075-.673,0-.202-.06-.296-.149-.471-.269-.292-.199-.373-.42-.673-.606-.15-.092-.255-.108-.404-.202-.237-.148-.386-.236-.539-.471-.19-.295-.199-.525-.202-.876-.001-.293-.005-.481.135-.74 .187-.347.46-.421.808-.604 .367-.195.809.024 1.01-.338 .115-.208.012-.375.067-.605 .015-.063.036-.118.06-.168 .08-.17.192-.288.209-.505 .029-.356-.284-.52-.269-.876 .009-.217.112-.322.135-.538 .029-.289-.24-.509-.068-.741 .149-.199.523.033.606-.201 .087-.248-.27-.313-.404-.539-.09-.15-.21-.227-.202-.402 .017-.318.725-.021.741-.338 .009-.176-.069-.289-.202-.403-.2-.173-.414-.02-.673-.067-.213-.039-.397.027-.538-.135s-.055-.327-.068-.539c-.015-.236.111-.397 0-.605-.106-.201-.29-.202-.471-.336-.241-.178-.501-.191-.606-.473-.103-.274-.061-.521.134-.74 .263-.295.623-.144 1.011-.066 .437.085.576.429 1.009.538 .281.071.451.054.741.066 .314.015.496.05.807,0 .328-.052.616.002.808-.269 .096-.135.111-.239.135-.404 .034-.235-.041-.369-.067-.605l-.135.135c-.079-.498-.176-.775-.202-1.279s-.125-.818.067-1.279c.11-.262.156-.469.405-.605 .324-.18.579.057.942.135 .292.063.441.212.741.201 .306-.011.445-.182.739-.27 .361-.105.582-.098.944-.201 .43-.123.644-.285 1.076-.403 .437-.12.75.02 1.145-.202 .526-.297.575-.756.875-1.279 .204-.356.307-.566.471-.942 .137-.313.316-.487.335-.808 .002-.022.002-.046.002-.067-.003-.274-.086-.425-.202-.673-.166-.358-.376-.489-.606-.809-.188-.26-.385-.365-.471-.674-.072-.252.064-.418 0-.673-.058-.228-.189-.317-.269-.538-.075-.204-.002-.369-.135-.539-.259-.33-.681.138-1.078,0-.372-.129-.586-.28-.807-.605-.187-.275-.335-.482-.27-.809 .042-.207.074-.391.27-.471l-.27.067c-.13-.289-.258-.433-.336-.74-.065-.256-.082-.41-.068-.675 .019-.323.167-.484.203-.807 .028-.262.05-.416 0-.674-.061-.311-.27-.43-.337-.74-.101-.465.134-.735.134-1.212 .001-.342-.068-.531-.067-.875 .001-.475.214-.742.135-1.212-.032-.188-.179-.285-.135-.471 .039-.164.164-.205.27-.336l.135-.271 .605-.605 .334-.571 .137-.236c.21-.236.367-.342.539-.605 .172-.265.172-.471.336-.74 .137-.226.251-.326.405-.539 .219-.309.278-.532.538-.809 .166-.176.287-.246.471-.404s.323-.212.472-.403c.143-.186.083-.396.269-.537 .171-.134.335-.061.538-.136 .377-.139.698-.18.876-.539 .116-.236.063-.407.067-.672 .005-.425-.092-.657-.136-1.079" fill="#800080"/>
 <path d="m64.47523,140.43943c-.211-.078-.253-.275-.47-.338-.177-.049-.289.018-.472,0-.381-.033-.585-.134-.943-.269-.296-.11-.459-.188-.741-.337-.27-.142-.426-.223-.672-.403-.225-.165-.335-.28-.538-.472-.19-.178-.25-.336-.472-.471-.235-.142-.513.021-.673-.202-.154-.212.119-.439 0-.673-.129-.254-.33-.34-.606-.404-.202-.047-.339.013-.516.047l.246.021c.21.288.377.421.539.74 .15.296.174.488.269.807 .087.287.095.461.202.74 .138.363.214.586.471.875 .238.268.453.329.741.539l.439.148c.069-.031.141-.061.235-.08 .439-.09.715-.002 1.144.135 .246.078.359.189.606.268 .428.137.702.213 1.144.136 .336-.06.678-.021.808-.337 .07-.17.098-.316 0-.471-.156-.243-.47.099-.741.001" fill="#800080"/>
 <path d="m58.61823,117.34943c.099.186.271.2.472.268 .225.077.421.217.606.066 .148-.119.184-.285.134-.469s-.271-.164-.336-.338c-.075-.197.223-.396.067-.538-.099-.091-.204-.056-.337-.067-.236-.021-.457-.117-.606.067-.131.163 0,.327 0,.538 0,.185-.085.309 0,.473" fill="#800080"/>
 <path d="m53.83924,8.69343c.19.023.307-.389.134-.471-.127-.06-.285.003-.336.135-.056.143.05.318.202.336" fill="#800080"/>
 <path d="m55.11823,3.84643c0,0 .143.177.27-.202 .074-.224.221-.5 0-.606-.143-.067-.263-.067-.405,0-.171.082-.275.215-.269.404 .007.223.181.397.404.404" fill="#800080"/>
 <path d="m54.04024.75043c.221.042.44-.001.539-.203 .083-.166.074-.35-.067-.47s-.308-.085-.472,0c-.207.108-.41.35-.268.538 .07.094.153.113.268.135" fill="#800080"/>
 <path d="m62.45524,28.82343-.24-.09 .107.224 .133-.134" fill="#dbe2f3"/>
 <path d="m55.32023,17.10843c-.138.26-.224.462-.135.741 .074.229.442.232.405.471-.036.224-.274.229-.472.337-.337.182-.689-.017-.943.27-.313.354-.068.744 0,1.211 .068.461.19.703.337,1.146 .143.425.246.656.404,1.077l.067-.135c.342-.053.639-.387.875-.135 .131.139.108.281.135.471 .045.313-.156.504-.067.809 .094.322.303.432.538.672 .195.201.503.195.539.473 .038.297-.293.365-.471.605-.135.182-.246.264-.337.471-.148.338-.032.576-.067.942-.041.422-.434.777-.135,1.077 .142.143.325.066.471.203 .272.252.003.595.135.941 .121.32.21.52.472.741 .241.204.445.216.74.337 .208.084.317.24.538.201 .275-.048.229-.4.472-.538 .319-.183.592.05.942-.067 .394-.131.521-.391.876-.605 .23-.141.342-.274.605-.338 .389-.094.636.102.971.248-.116-.248-.198-.445-.366-.719-.187-.303-.374-.424-.537-.74-.142-.273-.165-.451-.27-.741s-.028-.549-.269-.739c-.21-.167-.445.005-.674-.136-.31-.19-.36-.46-.471-.808-.208-.654-.003-1.096.202-1.75 .085-.27.01-.563.269-.674s.402.349.674.27c.351-.102.357-.51.336-.875-.016-.282-.269-.391-.269-.673s.164-.411.269-.674h.203c-.253-.212-.198-.484-.405-.741-.234-.289-.478-.339-.74-.605-.17-.172-.178-.385-.404-.471-.172-.066-.291.037-.471,0-.3-.061-.505-.148-.674-.404-.187-.286.033-.547-.067-.875-.116-.383-.287-.563-.538-.875-.21-.26-.355-.385-.606-.605-.296-.26-.46-.423-.808-.606v.337c0,.183.068.3 0,.47-.096.244-.332.243-.539.404-.294.227-.565.275-.74.604" fill="#800080"/>
 <path d="m18.69824,36.63143c.081.235.046.412.202.605 .214.266.49.213.807.337 .364.142.931-.054.943.336 .008.263-.229.343-.404.539-.097.108-.184.191-.271.267l-.065.07c.184.184.335.249.471.471 .141.234.273.408.202.674-.068.251-.383.227-.471.471-.091.248-.126.494.067.674 .174.161.372.027.606.066 .32.055.543.016.808.202 .279.197.138.661.47.74 .321.077.55-.136.742-.403 .228-.322-.032-.627.066-1.01 .126-.489.332-.721.606-1.145 .214-.33.356-.504.606-.808 .225-.272.309-.483.606-.672 .28-.181.499-.149.808-.271 .295-.117.441-.232.741-.338 .306-.105.527-.037.807-.201 .257-.148.324-.333.539-.539 .256-.243.465-.32.673-.605 .25-.342.284-.604.404-1.01 .114-.385.093-.623.202-1.01 .068-.24.206-.356.202-.605-.007-.365-.288-.493-.471-.809l.201.135-.74-.672c-.262-.238-.319-.601-.673-.606-.27-.005-.347.257-.606.336-.252.079-.417.13-.673.067-.327-.079-.379-.376-.673-.538-.27-.149-.454-.159-.741-.27-.264-.101-.451-.094-.673-.269-.287-.227-.226-.539-.471-.809-.201-.221-.369-.287-.606-.471l.067-.338c-.09.535-.4.818-.875,1.078-.398.217-.851-.144-1.144.202-.194.229-.121.452-.202.741-.126.447-.024.8-.337,1.143-.152.168-.266.244-.471.338-.22.1-.389.027-.606.135-.439.214-.553.559-.741,1.009-.174.419-.168.692-.201,1.144-.026.342-.062.541 0,.877 .056.305.168.451.269.742" fill="#800080"/>
 <path d="m55.52224,139.02543c.141-.189-.04-.373 0-.604 .062-.372.192-.565.404-.875 .094-.141.173-.2.269-.339 .087-.125.12-.207.202-.336 .192-.301.212-.596.538-.74 .265-.117.453,0 .741,0 .341,0 .707.297.875,0l-.808-.404c-.34-.131-.527-.222-.875-.336-.539-.176-.89-.555-1.413-.337-.176.072-.235.184-.404.269-.681.345-1.275.281-1.953-.066-.332-.172-.407-.439-.741-.606-.222-.112-.44-.016-.605-.202-.161-.181-.103-.365-.135-.605-.048-.364.207-.639 0-.942-.126-.187-.255-.271-.471-.338-.201-.061-.329.007-.539,0-.342-.009-.652.194-.875-.065-.205-.24.205-.569 0-.809-.223-.26-.605.143-.874-.068-.283-.218-.143-.541-.271-.873-.114-.297-.377-.428-.337-.741 .002-.021.007-.04.012-.059 .097-.341.604-.275.796-.615 .26-.456.176-.831.067-1.346-.083-.392-.462-.548-.403-.942 .039-.269.277-.342.336-.606 .063-.284.02-.464-.068-.74-.081-.257-.434-.354-.335-.606 .085-.218.464-.046.537-.269s-.18-.321-.269-.54c-.102-.254-.146-.404-.201-.673-.085-.411-.058-.655-.067-1.077-.007-.262.098-.43 0-.672-.169-.414-1.029-.094-1.011-.539 .016-.354.856-.303.674-.605-.013-.021-.027-.037-.043-.051-.082-.068-.202-.033-.327,0-.121.033-.247.064-.348,0l-.023-.017c-.232-.19-.066-.475-.202-.741-.177-.348-.512-.385-.673-.741-.143-.313.028-.569-.135-.874-.167-.313-.484-.309-.673-.607-.284-.447-.019-.848-.202-1.345-.101-.276-.22-.404-.336-.673-.123-.283-.204-.44-.27-.74-.05-.232-.027-.373-.067-.606-.09-.516-.371-.757-.404-1.28-.02-.315.048-.491.067-.807 .061-.97-.46-1.635 0-2.491 .194-.36.579-.409.674-.808 .148-.632-.434-.939-.876-1.414-.215-.23-.44-.27-.606-.538-.303-.491-.064-.907 0-1.481 .057-.507-.101-.93.269-1.279 .155-.145.335-.106.472-.27 .29-.344-.096-.695-.135-1.144-.023-.274-.021-.491-.022-.707s-.006-.434-.045-.708c-.118-.839-.464-1.25-.606-2.086-.11-.649-.044-1.031-.134-1.684-.106-.77-.266-1.188-.405-1.952-.155-.862-.218-1.354-.336-2.222-.118-.864-.262-1.348-.27-2.221-.006-.817-.106-1.33.202-2.088 .229-.559.545-.773.876-1.279 .438-.669.643-1.076 1.077-1.75 .308-.477.534-.714.807-1.212 .21-.38.293-.613.472-1.009 .189-.418.352-.635.471-1.078 .11-.408.14-.653.135-1.076-.006-.479-.378-.767-.202-1.213 .136-.345.531-.328.674-.672s.01-.575 0-.943c-.025-.816-.123-1.273-.203-2.086l-.538.403c-.132-.288-.224-.444-.337-.741-.128-.332-.265-.517-.269-.875-.005-.414.218-.611.336-1.01 .085-.287.148-.446.202-.74 .076-.414.129-.66.068-1.077-.058-.386-.118-.62-.337-.941-.166-.247-.409-.271-.539-.54-.171-.354.026-.615 0-1.009-.046-.72-.102-1.136-.336-1.817-.21-.611-.184-1.154-.741-1.481-.323-.19-.648.031-.942-.202-.258-.205-.189-.492-.404-.74-.196-.227-.363-.296-.606-.471-.354-.256-.575-.37-.942-.606l.08.059c-.019.174-.068.349-.148.548-.148.363-.344.514-.606.807-.309.348-.504.528-.875.809-.226.172-.425.185-.606.404-.164.199-.154.373-.269.605-.121.242-.205.37-.337.605l-.279-.051c.11.036.226.072.346.117 .257.098.479.01.674.203 .245.243.043.543.135.875 .106.386.273.564.404.943 .192.559.253.893.336,1.479 .107.755-.101,1.211.067,1.953 .061.267.165.401.202.674 .076.556-.155.863-.269,1.413-.098.474-.154.742-.269,1.212-.098.396-.321.604-.269,1.01 .04.315.242.438.336.738 .08.257.096.41.135.676 .057.39.053.614.067,1.009 .017.472-.17.771 0,1.213 .102.264.364.324.404.605 .039.271-.16.402-.202.673-.048.312-.012.493 0,.808 .013.342.036.535.067.875 .044.475.082.738.135,1.212 .026.237.057.368.067.606 .018.393-.043.616-.067,1.01-.029.473.154.793-.067,1.211-.157.296-.533.279-.606.606-.047.207-.015.343.067.54 .093.222.306.249.404.47 .139.312.019.534 0,.875-.015.263.029.428-.067.673s-.317.291-.404.539c-.133.375.064.619.135,1.01 .081.451.13.708.269,1.145 .128.404.285.603.404,1.01s.06.674.201,1.077c.118.332.351.46.405.808 .052.342-.014.552-.135.875-.107.287-.293.387-.404.673-.209.54-.102.905-.067,1.481 .024.396.109.614.135,1.011 .001.011.001.021.001.033 .021.346.013.553-.001.909-.022.527-.143.818-.135,1.346 .004.316.087.492.067.809-.022.349-.132.531-.202.874-.095.47-.327.751-.202,1.212 .089.33.315.438.472.74 .205.399.319.637.403,1.078 .094.489-.095.789 0,1.279 .064.326.312.478.27.807-.039.305-.374.369-.404.674-.035.34.258.476.336.808 .066.282-.005.46.068.74 .079.308.2.454.336.741 .152.318.17.544.404.809 .136.152.205.289.404.336 .286.066.38-.338.673-.336 .225.001.37.053.538.201 .213.187.088.457.27.673 .144.173.33.16.471.337 .111.137.171.23.202.404 .047.27-.22.399-.202.674 .015.223.195.313.202.537 .01.283-.227.395-.269.673-.027.183-.108.323 0,.472s.321.018.471.136c.332.259-.295.723-.067,1.075 .081.125.154.176.27.271 .19.155.396.132.558.286l.047.051c.141.174.178.314.202.538 .028.267-.052.418-.135.673-.062.19-.128.285-.202.472-.121.309-.334.482-.269.808 .042.207.191.275.269.472 .175.438.055.739.068,1.211 .01.421.145.683 0,1.077-.098.268-.42.323-.405.606 .015.263.268.314.405.538 .122.201.077.402.269.539 .235.167.465-.086.741,0 .236.073.516.09.538.337 .022.261-.386.189-.538.403-.174.244-.159.444-.202.739-.047.315-.16.558-.064.818 .015.04.036.083.064.125 .11.174.247.204.403.337 .213.181.4.229.539.47 .182.321-.055.597.068.944 .058.166.077.279.201.404 .125.123.27.089.404.201 .28.236.165.553.337.875 .134.25.175.438.403.606 .181.133.355.075.539.202 .263.182.25.441.471.672 .207.217.456.213.606.473 .122.209.061.375.135.606 .08.245.12.394.269.604 .129.182.184.369.404.404 .245.039.313-.235.539-.336 .343-.154.567-.213.942-.202 .186.003.289.032.472.067 .294.055.468.076.74.201 .325.149.716.183.741.539 .019.283-.145.49-.404.605-.241.107-.437.05-.674-.066-.32-.156-.212-.596-.538-.74-.313-.141-.704-.23-.875.066-.068.115-.074.203-.068.337 .014.283.184.427.404.605s.666-.013.674.27c.008.299-.72-.097-.741.203-.022.292.407.21.673.335 .362.17.553.316.943.404 .257.059.416.131.673.066 .172-.045.299-.064.405-.205" fill="#800080"/>
 <path d="m1.12724,32.52443c-.195-.235-.374-.469-.673-.402-.2.043-.337.143-.404.336-.071.205.045.341.134.538 .079.172.275.214.27.403-.005.206-.252.218-.337.405-.098.216-.17.39-.067.605 .065.134.135.204.269.27 .215.103.393.038.606-.067 .199-.099.296-.21.404-.404 .167-.299.11-.536.068-.875-.042-.331-.058-.552-.27-.809" fill="#800080"/>
 <path d="m2.07024,33.73743c-.105.158-.007.342.134.471 .156.143.396.224.539.066 .146-.159.038-.406-.135-.537s-.423-.175-.538,0" fill="#800080"/>
 <path d="m3.82024,33.87143c-.16.14-.27.479-.068.539 .105.03.173-.018.27-.067 .202-.102.454-.277.337-.472-.109-.179-.381-.138-.539,0" fill="#800080"/>
 <path d="m43.74124,118.89643c.271-.163.056-.492.067-.807 .009-.238.055-.377 0-.607-.054-.228-.191-.316-.269-.539-.09-.252-.002-.438-.135-.672-.111-.194-.195-.327-.404-.404-.172-.064-.302-.074-.471,0-.188.082-.288.205-.337.404-.051.211.061.336.135.538 .081.221.223.309.27.54 .052.257-.054.408-.068.672-.015.289-.21.543 0,.741 .173.161.37.04.606.067s.402.19.606.067" fill="#800080"/>
 <path d="m45.82823,121.18543c-.073-.135-.185-.183-.336-.201-.165-.021-.247.08-.405.134 0,0 .315.09.202.371s.336.168.336.168c0,.026-.001.042 0,.067 .011.224.309-.341.203-.539" fill="#800080"/>
 <path d="m44.27924,121.52143c-.229.079-.296.256-.404.472-.096.194-.197.331-.134.538 .091.305.423.337.74.337s.698-.021.741-.337c.022-.164-.056-.258-.135-.404-.188-.345-.435-.733-.808-.606" fill="#800080"/>
 <path d="m44.88524,125.42743c.292.03.526.064.74-.136 .309-.286.195-.746-.067-1.077-.153-.193-.298-.273-.538-.337-.203-.053-.356-.104-.539,0-.164.095-.135.271-.269.403-.134.135-.25.16-.404.27-.304.217-1.001.34-.74.606 .165.171.368.071.606.067 .211-.004.327-.086.538-.067 .282.027.392.241.673.271" fill="#800080"/>
 <path d="m45.28923,128.79343c.132-.102.135-.238.135-.404 0-.234-.042-.48-.269-.539-.161-.04-.25.074-.404.136-.218.087-.555.034-.539.27 .014.21.283.173.471.269 .23.115.4.424.606.268" fill="#800080"/>
 <path d="m46.16423,129.46643c-.208-.115-.369.043-.606.066-.366.035-.752-.248-.942.068-.207.342.496.476.539.874 .022.211-.161.349-.068.538 .103.211.307.234.538.27 .21.033.445.122.539-.066 .095-.189-.248-.262-.269-.471-.019-.191.041-.307.135-.473 .109-.193.397-.18.404-.404 .006-.188-.104-.311-.27-.402" fill="#800080"/>
 <path d="m47.57823,135.18743c-.074.237.106.631.337.539 .142-.056.157-.189.202-.336 .053-.177.134-.348 0-.473-.172-.159-.469.047-.539.27" fill="#800080"/>
 <path d="m51.07923,137.34243c-.198-.104-.324-.14-.538-.202-.257-.074-.406-.148-.674-.135-.217.011-.503-.078-.539.135-.024.15.106.217.203.337 .199.25.362.388.672.471s.494-.038.808-.067c.263-.023.562.172.673-.067 .127-.272-.341-.331-.605-.472" fill="#800080"/>
 <path d="m52.76223,139.02543c-.145-.121-.124-.282-.27-.404-.19-.16-.394-.332-.605-.2-.247.15-.139.535.067.739 .171.171.458-.058.606.136 .113.146-.058.332.067.47 .179.195.53.155.673-.066 .1-.156.094-.313 0-.473-.115-.192-.367-.057-.538-.202" fill="#800080"/>
 <path d="m56.32923,137.88043c-.167-.057-.293.064-.403.201-.164.205-.186.488 0,.674 .117.117.244.178.403.135 .241-.066.238-.359.203-.605-.026-.174-.035-.348-.203-.405" fill="#800080"/>
 <path d="m63.87024,141.98743c-.242.021-.38.05-.606.134-.287.108-.68.099-.674.406 .008.332.476.266.808.269 .242.001.369-.087.607-.136 .286-.058.622.136.739-.133 .075-.172.04-.32-.066-.473-.182-.258-.494-.095-.808-.067" fill="#800080"/>
 <path d="m62.72523,141.11143c-.189-.188-.406-.125-.673-.135-.238-.007-.371.031-.606.069-.346.054-.554.062-.875.201-.195.085-.271.2-.472.269-.249.088-.41.041-.673.068l.337.537c.315.027.501-.007.808.068 .275.066.393.229.673.27 .182.027.339.127.471,0 .153-.146-.178-.359-.067-.538 .151-.247.456.048.74,0 .189-.033.349.01.472-.136 .173-.204.054-.482-.135-.673" fill="#800080"/>
 <path d="m60.16723,140.97643c.309-.067.501.01.808-.066 .124-.03.211-.078.304-.121l-.439-.148c-.288-.21-.503-.271-.741-.539-.257-.289-.333-.512-.471-.875-.107-.279-.115-.453-.202-.74-.095-.318-.119-.511-.269-.807-.162-.319-.329-.452-.539-.74l-.246-.021c-.049.01-.101.018-.157.021-.263.013-.411,0-.674,0-.157,0-.254-.048-.403,0-.306.095-.41.357-.472.672-.046.234.041.369.067.606l.405.203c.13-.028.204-.047.336-.068 .261-.044.59-.317.673-.067 .042.127-.011.215-.067.336-.101.221-.368.185-.471.404-.068.146-.111.25-.068.404 .073.261.361.223.606.336 .28.13.833-.023.741.27-.075.238-.358.18-.606.202-.293.026-.472-.016-.741-.136-.139-.061-.193-.148-.336-.201-.271-.101-.452-.008-.741,0-.42.012-.937-.33-1.076.067-.081.229-.063.466.134.606 .171.121.329-.026.538,0 .33.041.485.191.808.27 .412.098.655.109 1.077.133 .367.021.59-.103.943,0 .225.066.305.244.538.271 .306.033.441-.205.741-.272" fill="#800080"/>
 <path d="m62.32223,28.95743-.015-.028-.053.028h.068" fill="#dbe2f3"/>
 <path d="m60.09924,25.65843c.229.141.464-.031.674.136 .241.19.164.451.269.739s.128.468.27.741c.163.316.35.438.537.74 .21.341.285.564.458.914 .187-.103.346-.131.485-.309 .155-.195.011-.445.202-.605 .147-.122.299-.051.471-.135 .251-.123.273-.387.54-.471 .304-.098.508.025.807.134 .253.093.373.199.606.337h.067c.21-.342.331-.532.539-.875 .158-.262.324-.378.404-.673 .096-.356.014-.583-.067-.942-.102-.447-.368-.631-.472-1.078-.166-.717-.146-1.203.135-1.885 .103-.25.214-.365.337-.605 .143-.283.205-.451.336-.74l-.019-.193c-.076-.027-.158-.051-.25-.076-.456-.125-.746.08-1.212,0-.352-.061-.524-.204-.875-.27-.285-.053-.451-.084-.741-.067-.267.017-.41.086-.673.135-.314.058-.49.158-.807.135-.332-.024-.555-.056-.808-.27h-.203c-.105.263-.269.392-.269.674s.253.391.269.673c.021.365.015.773-.336.875-.272.079-.413-.381-.674-.27s-.184.404-.269.674c-.205.654-.41,1.096-.202,1.75 .111.347.161.616.471.807" fill="#800080"/>
 <path d="m34.65324,65.71343c.463.278.806.274 1.279.538 .33.186.467.373.808.539 .276.136.518.058.74.27 .328.313-.045.764.202,1.145 .225.344.516.443.865.555l.279.051c.132-.235.216-.363.337-.605 .115-.232.105-.406.269-.605 .181-.22.38-.232.606-.404 .371-.28.566-.461.875-.809 .262-.293.458-.443.606-.807 .187-.465.203-.798.068-1.28-.08-.281-.197-.416-.337-.674-.193-.35-.531-.473-.539-.875-.007-.387.225-.574.471-.875 .201-.244.563-.225.607-.537 .041-.305-.287-.391-.404-.674-.135-.324-.195-.525-.203-.875-.006-.32.109-.49.135-.809 .04-.498-.012-.782-.067-1.279-.038-.342-.027-.547-.134-.875-.133-.402-.407-.539-.539-.942-.092-.278-.027-.468-.135-.74-.145-.366-.369-.492-.606-.808h-.134c-.263-.053-.406-.131-.674-.135-.211-.004-.327.051-.538.067-.34.027-.642.25-.875,0s.071-.532.067-.875c-.005-.423-.23-.665-.135-1.077 .202-.875-.337-.672-.337-.672-.236.209-.306.436-.605.537-.248.085-.412.029-.673,0-.38-.043-.65-.023-.943-.27-.234-.197-.159-.49-.404-.674-.22-.162-.408-.133-.673-.201-.234-.061-.509.087-.606-.135-.029-.066-.009-.12.034-.168 .101-.113.326-.197.303-.371-.021-.15-.116-.211-.202-.336-.158-.229-.338-.295-.471-.539-.156-.285-.069-.512-.203-.808-.101-.226-.2-.331-.336-.538-.176-.268-.417-.357-.471-.674-.045-.264.087-.409.134-.672 .096-.523-.13-.934.202-1.348 .165-.205.362-.211.539-.403 .342-.374.313-.729.471-1.212 .119-.363.224-.563.27-.942 .034-.287-.196-.528 0-.741 .212-.232.521.133.808,0 .236-.109.287-.287.47-.471 .237-.236.291-.493.606-.605 .248-.088.412-.021.673,0 .319.022.528.287.809.134 .198-.108.205-.287.336-.472l.067-.135c-.079-.34-.214-.523-.202-.875 .009-.242.024-.391.135-.605 .094-.182.215-.238.337-.403 .181-.247.261-.403.403-.672 .148-.282.51-.478.337-.743-.172-.264-.494.023-.808,0-.211-.016-.385.08-.538-.066-.12-.115-.029-.275-.135-.404-.256-.309-.611.252-1.009.203-.248-.031-.363-.256-.606-.203-.254.057-.227.383-.472.471-.248.092-.409-.053-.673-.066-.288-.014-.48.125-.741,0-.201-.096-.262-.232-.403-.404-.232-.281-.278-.498-.472-.807-.151-.241-.295-.344-.404-.605-.082-.201-.035-.348-.134-.539-.266-.511-1.009-.14-1.347-.607-.166-.227-.13-.426-.268-.672-.112-.196-.181-.309-.338-.472-.181-.189-.288-.325-.538-.403-.225-.072-.37,0-.606,0l-.269-.068c.183.315.464.443.471.809 .004.249-.134.365-.202.605-.109.387-.088.625-.202,1.01-.12.406-.154.668-.404,1.01-.208.285-.417.362-.673.605-.215.206-.282.391-.539.539-.28.164-.501.096-.807.201-.3.105-.446.221-.741.338-.309.121-.528.09-.808.271-.297.188-.381.399-.606.672-.25.304-.392.478-.606.808-.274.424-.48.655-.606,1.145-.098.383.162.688-.066,1.01-.192.268-.421.48-.742.403-.332-.079-.191-.543-.47-.74-.265-.187-.488-.147-.808-.202-.234-.039-.432.095-.606-.066-.193-.18-.158-.426-.067-.674 .088-.244.403-.22.471-.471 .071-.266-.061-.439-.202-.674-.136-.222-.287-.287-.471-.471l.065-.07c-.124.105-.248.199-.402.34-.29.261-.57.321-.741.672-.094.195-.056.338-.134.539-.11.287-.283.393-.404.674-.11.252-.274.408-.202.674 .068.25.383.226.471.47 .09.249-.082.41-.067.674 .018.323.185.483.202.808 .018.345-.251.551-.135.875 .126.352.412.43.741.606 .292.157.485.191.808.27 .335.081.59-.062.875.134 .368.256.229.664.403,1.078 .334.789.509,1.257 1.011,1.951 .304.423.636.547.874,1.01 .153.297.123.51.27.808 .092.188.204.319.322.438 .189.19.392.347.553.639 .316.576.234,1.004.471,1.616 .2.515.375.778.606,1.279 .241.522.317.849.606,1.347 .31.536.61.756.942,1.277 .228.358.355.563.539.943s.216.629.404,1.01c.12.243.231.358.337.607 .21.492.022.87.269,1.346 .189.363.414.49.673.808 .319.39.464.642.808,1.009s.558.555.942.877c.33.275.53.416.875.673 .363.269.52.517.943.673 .324.121.554.01.875.135 .436.162.542.492.943.733" fill="#800080"/>
 <path d="m54.64724,71.77243c-.346.222-.477.448-.674.809-.272.497-.258.852-.336,1.413-.072.521-.028.822-.067,1.346-.023.288-.057.452-.068.74-.008.211 0,.33 0,.54l-.202.066c.158.235.223.388.404.606 .166.201.349.242.471.471 .091.17.056.298.135.473 .381.838 1.454.295 2.222.807 .279.188.403.338.673.539 .455.34.818.398 1.211.807 .248.26.229.563.539.741 .254.147.457.058.741.136 .499.136.749.308 1.211.537 .348.174.508.348.876.473 .229.076.408-.006.605.134 .24.171.365.381.337.673-.023.247-.243.311-.337.539s-.09.367-.134.605c-.091.494.188.895-.134,1.279-.146.173-.335.157-.472.336-.225.297-.205.579-.134.943 .048.254.164.369.269.606l-.068-.271c.184,0 .288.006.472,0 .289-.01.45-.061.74-.066 .395-.009.616.035 1.01.066 .289.024.451.06.741.068 .42.012.685.086 1.076-.068 .231-.091.329-.205.539-.336 .289-.182.467-.266.741-.471 .371-.279.702-.377.875-.809 .117-.293.063-.492.067-.807 .004-.369.066-.6-.067-.943-.043-.109-.096-.158-.135-.27-.105-.297-.048-.496 0-.809 .059-.385.282-.556.337-.941 .054-.391.013-.623-.067-1.01-.069-.326.013-.635-.27-.808-.181-.111-.327-.071-.538-.067-.268.004-.407.141-.674.134-.299-.007-.506-.017-.74-.202-.38-.299-.224-.729-.269-1.211-.035-.367.025-.576 0-.942s.121-.675-.135-.943c-.243-.252-.535-.119-.875-.202-.211-.05-.325-.1-.538-.135-.39-.062-.617,0-1.011,0-.262,0-.411.017-.672,0-.371-.021-.805.211-.943-.134-.091-.225.191-.37.135-.606-.045-.184-.168-.244-.27-.403-.165-.257-.385-.367-.404-.673-.015-.248.157-.361.202-.606 .099-.549-.123-.862-.202-1.413l-.067-.338c-.263-.287-.356-.513-.674-.74-.325-.232-.559-.287-.942-.403-.558-.169-.901-.256-1.481-.202-.349.033-.537.109-.875.202-.537.147-.82.292-1.346.473-.315.104-.529.088-.808.267" fill="#800080"/>
 <path d="m70.60124,135.66043c.13-.082.111-.214.202-.338 .133-.178.265-.229.404-.404 .12-.146.326-.223.269-.402-.052-.17-.228-.184-.403-.203-.19-.02-.289.078-.472.135-.158.049-.351-.023-.404.135-.058.176.288.158.338.336 .083.306-.701.335-.54.607 .124.206.402.264.606.134" fill="#800080"/>
 <path d="m72.28524,135.66043c.164-.021.286-.018.403-.135 .099-.102.039-.233.135-.338 .147-.158.353-.023.539-.134 .159-.095.373-.154.336-.337-.041-.207-.33-.034-.538-.067-.265-.042-.409-.176-.674-.134-.232.035-.378.096-.538.268-.221.238-.442.591-.202.809 .157.142.329.093.539.068" fill="#800080"/>
</svg>
