<?xml version="1.0" encoding="UTF-8"?>
<svg width="120.23" height="94.456" enable-background="new 0 0 631.104 323.379" viewBox="0 0 120.22709 94.456292" xmlns="http://www.w3.org/2000/svg">
 <path d="m91.95699,37.38985c.298-.114.38-.604.134-.807-.202-.17-.508-.141-.672.066-.223.278.206.868.538.741" fill="#faa"/>
 <path d="m96.46699,46.00685c.204.055.385.078.54-.067 .12-.114.179-.244.132-.403s-.17-.234-.335-.27c-.229-.05-.391.085-.54.27-.072.091-.151.153-.133.269 .024.15.19.16.336.201" fill="#faa"/>
 <path d="m91.68799,41.42885c.081.229.022.393.136.605 .123.229.286.287.471.472 .238.235.41.334.606.606 .121.172.131.309.269.471 .222.262.524.205.74.472 .147.183.159.331.269.538 .103.186.093.355.27.472 .243.158.451-.067.741-.067s.514.248.741.067c.137-.11.176-.229.201-.404 .032-.214-.042-.343-.134-.539-.135-.285-.295-.405-.54-.606-.191-.155-.301-.26-.538-.336-.299-.097-.575.214-.807,0s.006-.5-.068-.807c-.12-.491-.147-.938-.606-1.146-.24-.108-.431.041-.673-.067-.27-.121-.389-.281-.54-.539-.162-.279.022-.57-.199-.808-.194-.205-.407-.362-.676-.269-.174.062-.263.166-.334.336-.117.277.088.463.2.74 .135.338.348.465.471.809" fill="#faa"/>
 <path d="m.67099,68.82685c.157.213-.082.456.067.675 .187.274.482.206.809.269 .489.097.782.03 1.28,0 .446-.027.698-.069 1.143-.135s.749.021 1.145-.202c.241-.136.301-.325.538-.471s.404-.182.674-.27c.309-.102.525-.04.808-.202 .178-.102.226-.232.404-.337 .216-.125.358-.165.604-.202 .208-.03.33.02.539,0 .407-.035.606-.221 1.009-.268 .473-.056.739.053 1.213.066 .524.016.821,0 1.347,0h.74c.499,0 .822.201 1.279,0 .274-.121.373-.283.606-.471 .377-.305.58-.488.942-.809 .265-.234.358-.443.673-.605 .334-.174.628.002.942-.203 .188-.12.217-.283.404-.402 .253-.16.464-.084.74-.203 .314-.135.421-.351.74-.47s.531-.12.875-.136c.367-.016.593-.045.942.067 .224.071.312.212.538.269 .333.084.538-.01.877-.066 .514-.088.805-.184 1.278-.404 .273-.127.426-.255.651-.387 .05-.027.101-.057.156-.084 .358-.18.557-.299.942-.404 .334-.092.53-.119.875-.135 .369-.017.574.064.942.068 .422.003.662-.004 1.077-.068 .348-.053.541-.303.875-.202 .321.097.453.31.607.605 .039.078.044.15.055.22 .012.064.027.125.078.186 .176.203.408.107.674.135 .261.024.413-.043.675,0 .188.029.283.09.47.135 .437.103.851-.208 1.146.134 .16.189.071.394.201.606 .135.223.456.211.471.471 .013.211-.24.262-.269.472-.033.246.133.366.201.605 .061.208.108.323.137.538 .024.209-.039.332 0,.539 .027.164.102.24.134.403 .043.233.032.373 0,.606-.037.271-.234.4-.203.673 .027.233.041.485.271.538 .254.062.28-.293.47-.47 .206-.192.309-.313.539-.472 .174-.121.35-.096.471-.27 .137-.195-.065-.41.069-.606 .104-.155.236-.177.402-.269 .247-.137.413-.158.673-.27 .238-.102.376-.154.607-.27 .242-.119.437-.126.606-.337 .138-.175.059-.362.201-.538 .183-.227.387-.276.674-.337 .229-.048.478-.199.604,0 .142.222-.348.282-.403.539-.028.128.017.206 0,.336-.052.362-.178.596-.474.809-.16.118-.295.104-.469.202-.199.109-.345.148-.472.336-.121.181-.025.354-.134.539-.096.16-.211.199-.338.336-.227.247-.243.513-.537.674-.213.115-.458-.057-.607.135-.113.147-.169.316-.067.471 .118.176.327.063.54.067 .265.007.434.047.672-.067 .234-.111.324-.257.472-.471s.098-.412.269-.606c.164-.187.307-.42.538-.337 .179.064.227.221.271.405 .072.298-.134.465-.271.74-.111.221-.184.343-.335.538-.06.076-.146.129-.234.177-.186.101-.373.173-.306.362 .109.297.589-.295.81-.068 .133.139.095.285.134.473 .077.359.163.586.065.942-.068.26-.179.384-.335.604-.139.199-.333.24-.404.471s.002.379.067.607c.127.433.518.519.672.941 .104.276-.013.49.138.741 .151.257.344.326.604.472 .269.148.435.238.74.268 .319.033.498-.208.808-.133 .278.064.377.236.607.404 .271.196.365.402.674.538 .292.128.5.224.806.134 .305-.088.361-.339.606-.538 .205-.165.296-.302.54-.405 .314-.132.564.082.874-.066 .218-.105.273-.263.472-.403 .268-.191.44-.54.741-.403 .313.141.087.532.134.873 .028.211-.02.346.067.539 .104.238.25.338.47.473 .258.154.446.238.741.201 .392-.048.473-.4.808-.605 .301-.184.484-.266.81-.404 .281-.12.514-.063.739-.27 .218-.196.129-.465.336-.673 .293-.293.604-.254 1.012-.337 .488-.098.779-.105 1.277-.066 .428.032.651.228 1.078.201 .323-.019.539-.018.808-.201 .264-.183.301-.404.471-.674 .41-.643.343-1.202.877-1.75 .314-.324.637-.339.943-.674 .268-.296.272-.572.537-.875 .293-.338.583-.406.897-.698l.043-.042c.293-.287.413-.492.674-.807 .369-.446.58-.695.942-1.146 .399-.495.595-.798 1.011-1.278 .353-.408.519-.678.944-1.011 .312-.247.553-.298.874-.539 .31-.233.445-.417.741-.673 .309-.27.495-.406.807-.674 .212-.181.339-.275.539-.471 .14-.139.249-.264.347-.387 .17-.215.31-.426.528-.69 .39-.476.614-.741 1.009-1.212 .287-.342.497-.5.741-.874 .268-.414.346-.69.539-1.146 .173-.413.139-.714.403-1.077 .207-.286.46-.323.673-.605 .292-.384.338-.681.471-1.145 .125-.436.186-.691.203-1.144 .016-.477-.201-.742-.135-1.212 .054-.387.231-.566.336-.943 .106-.387.162-.608.202-1.011 .057-.574-.03-.903-.066-1.48-.04-.592.083-.969-.122-1.515l-.014-.033c-.101-.251-.192-.377-.336-.606-.231-.363-.397-.545-.675-.875-.346-.412-.797-.49-.94-1.009-.123-.433.119-.695.134-1.146 .016-.473.289-.9-.068-1.211-.205-.182-.409-.127-.672-.201-.287-.084-.504-.021-.74-.203-.263-.199-.297-.43-.404-.74-.141-.399-.055-.662-.135-1.078-.063-.317-.109-.496-.2-.807-.113-.375-.285-.556-.338-.943-.036-.26.142-.453 0-.672s-.384-.139-.606-.271c-.257-.151-.414-.242-.604-.472-.176-.207-.127-.435-.339-.605s-.435-.065-.672-.201c-.293-.164-.381-.361-.605-.605-.191-.205-.333-.297-.473-.538-.325-.571-.123-1.029-.067-1.684 .006-.054.011-.103.021-.153 .092-.468.388-.771.247-1.262-.062-.225-.193-.314-.269-.537-.144-.426-.043-.699-.068-1.146-.033-.683-.02-1.068-.065-1.75-.038-.578.211-1.016-.135-1.48-.178-.241-.439-.223-.605-.472-.08-.119-.069-.255-.074-.379-.004-.114-.019-.221-.128-.294-.268-.184-.502.095-.808.201-.066.023-.122.057-.177.093-.189.133-.326.313-.563.244-.143-.042-.206-.13-.23-.244-.048-.239.084-.598.097-.901 .016-.509.246-.769.267-1.278 .024-.556-.148-.858-.201-1.413-.044-.445.072-.721-.065-1.145-.115-.347-.349-.465-.474-.809-.172-.471.242-.949-.134-1.279-.264-.23-.545-.322-.875-.201-.336.123-.405.409-.54.741-.119.296-.05.498-.134.807-.134.5-.392.716-.538,1.212-.128.436-.149.693-.203,1.145-.057.496.071.8-.066,1.279-.111.395-.522.535-.473.941 .027.199.171.275.204.473 .027.17-.011.304-.075.429-.092.184-.242.346-.33.581-.138.365-.214.571-.337.941-.212.647-.313,1.02-.471,1.684-.086.365-.106.579-.202.942-.145.563-.129.945-.47,1.413-.265.362-.491.517-.875.741-.408.238-.672.388-1.146.404-.432.016-.716-.032-1.077-.27s-.348-.593-.673-.876c-.319-.276-.598-.292-.941-.538-.47-.334-.666-.607-1.078-1.01-.213-.206-.293-.37-.537-.538-.194-.133-.331-.162-.539-.27-.345-.178-.612-.186-.875-.471-.272-.293-.085-.704-.405-.942-.198-.149-.412-.046-.604-.202-.246-.199-.398-.43-.338-.74 .045-.223.196-.295.338-.472 .125-.161.234-.261.347-.379 .063-.065.125-.137.192-.228 .146-.199.314-.292.336-.537 .021-.26-.246-.35-.271-.606-.021-.241-.005-.409.136-.606 .155-.221.353-.244.604-.336 .349-.129.748.18.944-.135 .151-.248-.128-.457-.069-.74 .074-.336.528-.403.473-.741-.036-.224-.166-.325-.338-.472-.195-.168-.348-.242-.604-.269-.299-.03-.49.365-.741.2-.209-.135.017-.486-.202-.604-.186-.101-.345-.018-.54.067-.289.126-.243.491-.538.605-.321.125-.541-.047-.875-.135-.353-.092-.539-.194-.875-.336-.292-.123-.438-.234-.739-.338-.357-.119-.605-.035-.943-.2-.302-.149-.383-.368-.672-.54-.226-.13-.356-.207-.606-.269-.332-.081-.647-.253-.877,0-.144.161-.204.333-.135.538 .069.193.223.24.406.337 .145.077.283.019.402.134 .231.229.02.572-.203.809-.157.172-.336.148-.536.27-.194.117-.246.318-.473.337-.299.024-.307-.46-.605-.472-.335-.014-.377.379-.674.539-.29.158-.491.163-.808.269l-.47.202c-.187.262-.385.365-.473.674-.093.328.266.594.067.875-.177.252-.506.071-.74.269-.27.228-.153.56-.403.809-.175.175-.433.111-.539.337-.049.106-.046.199-.024.294 .023.097.066.194.09.313 .088.39.619.604.406.94-.152.24-.394.238-.674.27-.47.055-.674-.461-1.145-.403-.314.039-.478.515-.739.337-.166-.113-.11-.294-.201-.471-.133-.253-.26-.363-.406-.606-.078-.132-.121-.257-.159-.379-.065-.204-.119-.392-.312-.563-.219-.195-.404-.221-.674-.338-.28-.121-.44-.342-.738-.27-.308.075-.341.361-.54.607-.165.203-.2.375-.404.539l-.032.024c-.351.244-.755-.019-1.112.244-.287.211-.348.439-.538.741-.207.326-.159.646-.471.874-.283.206-.58.014-.875.202-.388.248-.49.566-.607,1.01-.059.23.04.395-.065.605-.146.287-.375.359-.675.472-.346.13-.806-.274-.94.068-.107.262.163.41.268.672 0,0-.399,1.225-.875,1.01-.3-.135-.31-.426-.404-.74-.098-.327.261-.775-.067-.875-.271-.083-.418.192-.605.404-.211.238-.179.466-.337.74-.197.342-.485.433-.604.809-.042.127-.042.203-.069.336-.031.165-.033.314-.035.453 0,.263.004.497-.166.76s-.367.33-.604.537c-.312.269-.541.362-.81.673-.222.261-.312.438-.471.741-.121.229-.138.383-.27.605-.17.29-.27.473-.538.673-.189.142-.323.176-.539.27-.28.124-.442.196-.74.271-.537.131-.862.057-1.413.066-.342.007-.584-.176-.874,0-.245.146-.151.481-.405.605-.261.127-.453-.085-.742-.066-.322.022-.536.021-.809.201-.247.167-.203.469-.468.606-.235.121-.41.06-.675.067-.368.011-.581-.14-.943-.067-.31.062-.44.231-.739.336-.307.108-.53.034-.808.202-.222.136-.281.295-.472.471-.179.165-.271.266-.472.404-.22.156-.363.217-.605.336-.231.117-.383.141-.607.27-.195.115-.306.182-.468.337-.192.183-.235.341-.407.539s-.221.546-.47.472c-.161-.049-.105-.303-.271-.336-.199-.042-.295.161-.403.336-.179.29 0,.533 0,.875 0,.157.019.248 0,.404-.042.338-.188.499-.336.807-.144.297-.24.456-.403.74-.153.266-.316.382-.406.674-.104.352-.078.584 0,.943 .028.121.069.214.112.302 .054.112.115.22.16.37 .088.307.102.49.134.809 .042.444.139.721 0,1.145-.085.257-.067.61-.337.605-.284-.004-.168-.408-.271-.672-.109-.287.033-.787-.269-.742-.185.028-.264.166-.336.339-.093.218.063.366.065.604 .004.265.164.546-.065.675-.249.137-.342-.509-.606-.403-.273.106-.187.45-.135.739 .065.351.366.429.538.74 .126.227.2.357.269.605 .103.354.086.574.068.942-.015.345-.17.532-.134.876 .052.502.44.666.604,1.145 .122.355.256.57.201.941-.063.47-.502.569-.672,1.011-.218.564-.151.941-.134,1.549 .015.582.147.899.203,1.481 .045.505.119.804.069,1.295-.001.016-.002.033-.004.051-.049.43-.097.68-.269,1.076s-.385.566-.606.943c-.256.435-.195.85-.605,1.145-.249.179-.466.132-.741.269-.222.111-.405.129-.54.337-.168.266-.189.556 0,.808 .139.19.398.083.537.27" fill="#faa"/>
 <path d="m36.88899,23.45385c.076.089.135.27.135.27 .045.162.121.259.271.337 .236.125.419-.047.673-.135 .312-.108.49-.189.741-.404 .181-.157.391-.229.403-.471 .01-.211-.094-.355-.27-.472-.243-.159-.452.054-.741.067-.314.015-.495.018-.807,0-.265-.014-.461-.224-.675-.067-.216.157-.287.454-.133.673 .102.144.287.069.403.202" fill="#faa"/>
 <path d="m34.33099,72.05985c.289.032.453.105.74.066 .188-.024.284-.096.473-.134 .256-.053.515.146.671-.066 .095-.13.131-.257.069-.405-.096-.223-.365-.105-.607-.135-.287-.033-.453-.029-.74,0-.348.037-.611-.029-.875.203-.142.125-.332.224-.268.403 .069.2.326.044.537.068" fill="#faa"/>
 <path d="m41.93799,80.20385c.134-.067.172-.157.271-.268 .147-.17.435-.27.336-.473-.082-.172-.282-.158-.471-.134-.224.03-.287.206-.473.337-.182.131-.43.114-.47.336-.06.321.518.353.807.202" fill="#faa"/>
 <path d="m48.46699,80.54185c.219-.105.323-.244.406-.472 .079-.222.122-.404 0-.606-.101-.16-.216-.254-.406-.269-.277-.022-.384.237-.538.472-.122.188-.199.314-.202.537 0,.135-.01.229.069.338 .154.213.435.114.671,0" fill="#faa"/>
 <path d="m40.39099,87.07085c.178.262.496.122.808.068 .416-.073.553-.375.942-.54 .328-.138.541-.143.874-.269 .408-.152.607-.311 1.011-.472 .387-.153.688-.072 1.009-.335 .345-.284.206-.715.54-1.011 .279-.251.617-.13.875-.404 .283-.304.188-.62.337-1.009 .121-.32.138-.53.337-.809 .202-.289.782-.269.673-.606-.108-.329-.538-.203-.875-.134-.197.039-.28.148-.472.202-.381.104-.657-.175-1.011,0-.184.091-.229.229-.404.337-.281.174-.492.377-.808.27-.302-.105-.187-.525-.47-.675-.235-.123-.416-.01-.673-.066-.302-.065-.46-.394-.743-.269-.206.09-.213.279-.334.471-.147.227-.217.364-.338.605-.179.357-.351.547-.403.942-.044.313.164.507.067.808-.116.354-.543.326-.673.674-.111.295-.021.493 0,.808 .014.237.089.37.065.606-.031.34-.527.527-.334.808" fill="#faa"/>
 <path d="m38.50499,1.23885c.241.108.412-.034.673-.067 .186-.023.295-.009.473-.068 .2-.064.398-.07.47-.27 .063-.18.02-.356-.136-.471-.106-.079-.206-.033-.334-.066-.219-.058-.321-.15-.539-.203-.182-.043-.302-.142-.473-.066s-.177.237-.269.403c-.097.175-.244.276-.2.472 .04.181.166.26.335.336" fill="#faa"/>
 <path d="m47.39099,2.18185c.172.18.117.425.336.539 .119.061.204.051.338.066 .183.021.331.119.472,0s.099-.289.067-.471c-.049-.259-.192-.385-.403-.539-.162-.118-.276-.164-.474-.201-.18-.036-.314-.1-.47,0-.129.082-.222.184-.202.336 .023.166.221.148.336.27" fill="#faa"/>
 <path d="m52.43999,14.97285c-.225-.137-.43-.036-.674.066-.256.109-.348.267-.538.472-.178.193-.247.328-.402.538-.213.287-.559.385-.539.741 .006.108.008.179.066.269 .148.218.426.088.673,0 .181-.063.232-.189.404-.269 .313-.146.616.091.875-.134 .16-.141.192-.276.271-.473 .099-.248.176-.408.135-.673-.038-.233-.07-.416-.271-.537" fill="#faa"/>
 <path d="m43.01499,5.14285c-.239.063-.299.279-.538.339-.257.062-.41-.067-.674-.068-.291-.003-.578-.173-.74.068-.149.22-.014.45.136.672 .181.274.481.199.739.403 .177.139.305.205.403.404 .167.329-.126.578-.065.942 .029.188.019.319.134.472 .255.335.741.254 1.078,0 .196-.15.142-.384.337-.539 .155-.125.277-.26.47-.201 .203.063.106.336.271.471 .226.186.467.027.74.135 .196.078.332.109.471.27 .164.188.02.436.201.605 .197.181.414.072.672.135 .648.153.974.373 1.617.539 .363.094.575.129.944.201 .443.088.774-.062 1.143.202 .243.175.267.389.473.605 .319.341.733.321.94.741 .144.285.031.506.135.809 .121.344.306.482.472.807 .146.282.254.434.338.74 .103.381.037.617.067,1.01 .022.315.054.492.065.809 .02.393-.329.793 0,1.01 .269.174.49-.107.81-.135 .341-.029.553-.115.875,0 .365.131.521.35.739.674 .204.303.286.512.337.875l.136.135 .27-3.232 .202-3.097 .268-3.837v-2.424l.203-.2c-.238-.212-.329-.391-.605-.54-.354-.191-.613-.143-1.012-.203-.207-.031-.328-.029-.537-.066-.459-.08-.755-.084-1.146-.336-.14-.092-.191-.185-.335-.27-.213-.127-.381-.094-.606-.202-.256-.123-.337-.31-.604-.403-.273-.098-.454-.111-.741-.068-.279.041-.47.073-.673.27-.256.25-.016.623-.271.876-.166.165-.314.19-.537.269-.277.098-.48,0-.74.135-.314.162-.294.508-.607.674-.146.076-.285.018-.402.133-.187.186.138.451 0,.674-.088.143-.188.193-.338.27-.375.191-.701.123-1.076-.066-.299-.151-.417-.33-.607-.605-.179-.263-.228-.443-.337-.741-.099-.282-.139-.448-.2-.74-.093-.44-.05-.704-.136-1.146-.063-.318-.101-.499-.202-.808-.104-.325-.078-.586-.336-.808-.265-.228-.556-.057-.874-.201-.26-.119-.34-.311-.606-.404-.274-.098-.459.001-.741-.068s-.396-.32-.672-.27c-.224.042-.283.213-.472.338-.256.169-.392.285-.675.404-.323.133-.639-.059-.874.201-.168.184-.088.385-.203.605-.086.169-.224.221-.269.404-.058.236-.056.456.134.605 .208.162.413-.102.674-.066 .282.037.507.04.673.27 .155.213-.067.445.068.672 .104.176.229.229.404.338 .26.162.438.201.739.268 .514.115.822,0 1.347,0 .237,0 .444-.172.605,0 .126.137.136.299.069.472-.14.346-.584-.302-.948-.207" fill="#faa"/>
 <path d="m119.82799,34.49485c.33-.312.598-.926.2-1.145-.138-.077-.244-.064-.402-.066-.242-.004-.41-.006-.607.135-.259.182-.329.423-.335.74-.008.215-.01.377.135.537 .267.301.717.074 1.009-.201" fill="#faa"/>
 <path d="m116.25999,37.11985c.228.289.578.117.943.067 .329-.046.507-.128.807-.269 .277-.13.511-.146.674-.404 .209-.334.11-.658-.067-1.01-.109-.217-.195-.35-.404-.471-.274-.16-.512-.182-.808-.068-.227.088-.288.248-.473.404-.312.266-.664.289-.806.673-.103.27-.074.462 0,.74 .035.139.047.227.134.338" fill="#faa"/>
 <path d="m117.33799,37.99485c-.296.113-.761.263-.607.539 .117.211.365.164.607.135 .197-.024.346-.045.469-.202 .131-.167.217-.39.069-.538s-.341-.009-.538.066" fill="#faa"/>
 <path d="m67.38499,5.00885c.357.024.58-.067.875-.271 .184-.124.362-.185.405-.402 .06-.311-.258-.462-.539-.605-.305-.158-.56-.197-.875-.068-.276.112-.455.254-.538.539-.067.228-.08.418.066.605 .154.196.358.184.606.202" fill="#faa"/>
 <path d="m73.17499,5.81585c.185.01.343.066.47-.068 .147-.15.106-.355 0-.537-.115-.205-.304-.258-.537-.27-.19-.01-.343-.006-.473.135-.142.156-.167.352-.066.539 .119.218.357.188.606.201" fill="#faa"/>
 <path d="m74.65699,6.69085c.167.228.442.104.672.27 .289.21.203.622.539.74 .197.07.36.111.539,0 .267-.168.21-.527.065-.807-.12-.234-.334-.24-.539-.404-.244-.199-.319-.401-.604-.539-.287-.139-.659-.417-.808-.135-.073.14-.019.248 0,.404 .025.19.021.319.136.471" fill="#faa"/>
 <path d="m67.25099,11.20185c.128.287.705.297.808,0 .063-.181.002-.339-.135-.471-.119-.116-.242-.171-.405-.136-.251.057-.375.372-.268.607" fill="#faa"/>
 <path d="m68.52899,11.94185c.117.066.238.023.337-.067 .116-.107.168-.279.067-.404-.117-.145-.374-.09-.471.068-.084.137-.071.325.067.403" fill="#faa"/>
 <path d="m73.57899,18.27085c.131.021.246.029.338-.068 .104-.115.046-.254 0-.404-.084-.267-.288-.592-.539-.471-.181.086-.223.271-.203.471 .022.241.166.432.404.472" fill="#faa"/>
 <path d="m73.57899,19.75185c.08-.234-.119-.422-.337-.539-.143-.075-.251-.023-.403-.066-.137-.039-.198-.162-.337-.135-.221.041-.224.314-.203.537 .015.142.043.23.136.338 .175.202.41.189.673.135 .207-.044.402-.071.471-.27" fill="#faa"/>
 <path d="m73.84799,20.89585c.233-.065.478-.24.405-.472-.069-.214-.315-.21-.54-.202-.166.006-.308-.001-.403.135-.09.13-.081.27 0,.404 .111.186.33.194.538.135" fill="#faa"/>
 <path d="m76.80899,18.87685c.109-.019.188.004.271-.068 .138-.119.101-.316 0-.471-.144-.221-.465-.229-.672-.066-.192.148-.304.43-.136.605 .145.15.33.033.537,0" fill="#faa"/>
 <path d="m76.87799,10.39385c.14-.273.265-.434.269-.74 .004-.275.009-.498-.203-.673-.165-.14-.334-.065-.536-.136-.334-.112-.472-.504-.81-.404-.195.059-.318.15-.404.337-.122.274.212.441.203.74-.007.217.027.397-.135.54s-.348-.025-.539.066c-.271.129-.246.41-.47.606-.188.163-.301.27-.54.336-.227.063-.381.077-.605,0-.18-.062-.217-.241-.403-.27-.269-.039-.348.261-.606.337-.329.097-.537.029-.877,0-.315-.027-.488-.16-.806-.135-.216.018-.385-.019-.538.135s-.167.324-.136.539c.041.259.194.38.403.539 .342.258.674.062 1.076.201 .246.084.361.191.608.269 .329.104.528.144.875.135 .489-.011.754-.161 1.213-.336 .295-.114.466-.173.74-.337 .286-.175.371-.389.672-.538 .246-.123.436-.065.674-.202 .177-.103.26-.189.404-.337 .224-.228.323-.386.471-.672" fill="#faa"/>
 <path d="m72.23299,20.62685c-.211-.134-.451-.006-.605-.202-.148-.187-.036-.369-.068-.604-.022-.186.035-.318-.065-.473-.154-.228-.47-.021-.675-.201-.157-.141-.147-.299-.27-.473s-.158-.302-.337-.402c-.25-.144-.543.211-.741,0-.162-.174-.009-.375-.065-.606-.124-.503-.293-.794-.675-1.144-.207-.193-.409-.197-.604-.405-.17-.18-.218-.321-.336-.538-.153-.279-.274-.43-.337-.74-.059-.283-.137-.486 0-.74 .123-.232.4-.181.538-.404 .164-.271.183-.516.067-.809s-.334-.377-.605-.537c-.102-.061-.164-.083-.27-.135-.211-.105-.332-.16-.539-.271-.321-.171-.596-.176-.807-.472-.119-.16-.128-.285-.203-.471-.146-.361-.142-.604-.338-.941-.183-.325-.33-.49-.605-.742-.236-.215-.377-.351-.672-.471-.25-.101-.431-.02-.674-.134-.336-.159-.384-.412-.673-.675-.315-.367-.444-.622-.808-.941-.198-.174-.292-.314-.538-.404-.348-.127-.574.07-.944.068-.501-.002-.81.045-1.279-.135-.251-.098-.364-.211-.604-.337-.438-.229-.699-.329-1.145-.54l-.674-.267-.203.2v2.424l-.268,3.837-.202,3.097-.27,3.232-.136-.135c.033.232-.102.393 0,.605 .206.426.739.04 1.213.066 .445.027.698.033 1.144.068 .289.021.452.076.741.067 .319-.011.531.027.807-.136 .242-.141.313-.309.473-.537 .119-.175.24-.262.27-.473 .033-.246-.347-.402-.203-.605 .112-.155.297-.056.471-.135 .141-.063.231-.091.338-.202 .173-.179-.008-.47.202-.604 .133-.088.251-.021.404-.068 .258-.078.353-.238.604-.336 .179-.07.279-.135.473-.135s.286.084.469.135c.209.056.333.072.541.134 .295.087.44.204.74.271 .257.055.428-.031.674.066 .21.084.383.128.469.338 .082.194-.093.328-.065.537 .047.375.208.623.538.809 .188.104.376-.007.539.135 .26.223-.137.6.066.875 .16.217.385.181.606.336 .168.119.284.171.402.337 .161.222.016.474.202.673 .287.307.668-.027 1.078.067 .243.057.375.105.606.202 .217.091.306.234.538.27 .21.032.33-.107.537-.067 .244.046.328.204.539.337 .289.182.414.371.74.471 .229.068.383.149.607.067 .21-.077.352-.188.402-.403 .082-.327-.252-.493-.535-.674" fill="#faa"/>
 <path d="m77.75299,7.90285c0,0-.313.553-.337.942-.024.375-.143.791.202.943 .244.107.465.033.673-.135 .327-.268.22-.686.066-1.078-.126-.327-.29-.509-.604-.672" fill="#faa"/>
 <path d="m74.04999,22.37685c-.253.059-.54.221-.471.471 .069.26.414.201.674.136 .217-.056.453-.112.47-.337 .024-.282-.397-.335-.673-.27" fill="#faa"/>
 <path d="m75.53199,21.63685c-.228-.01-.432.115-.474.336-.037.208.101.344.271.472 .112.085.199.161.337.135s.212-.132.268-.269c.117-.285-.097-.662-.402-.674" fill="#faa"/>
 <path d="m77.28099,23.11685c-.265-.006-.529-.154-.674.068-.1.154 0,.287 0,.471l-.269.067c.263.157.368.433.673.404 .211-.021.319-.123.471-.27 .211-.204.53-.452.339-.673-.14-.159-.327-.061-.54-.067" fill="#faa"/>
 <path d="m82.59999,12.61485c-.17-.174-.336-.203-.471-.402-.142-.207-.046-.412-.201-.606-.171-.21-.369-.21-.606-.337-.208-.109-.341-.393-.539-.27s.094.389 0,.606c-.089.204-.333.192-.404.403-.049.15-.06.258 0,.404 .084.209.323.166.47.337 .155.177.203.313.271.538 .075.252-.071.449.067.674 .193.311.511.346.875.336 .343-.009.603-.064.81-.336 .221-.295.219-.607.066-.943-.088-.187-.195-.256-.338-.404" fill="#faa"/>
 <path d="m85.69599,14.70285c-.191-.147-.416.016-.605-.135-.184-.146-.131-.348-.27-.538-.132-.181-.192-.337-.404-.404-.23-.073-.467-.063-.605.134s-.045.397.067.606c.087.163.252.171.336.337 .096.188-.031.352.067.538 .144.271.375.336.674.405 .392.088.869.174 1.009-.203 .108-.287-.025-.552-.269-.74" fill="#faa"/>
 <path d="m85.49399,16.65585c-.186-.115-.348-.24-.538-.135-.213.114-.061.375-.135.605-.08.245-.368.365-.27.604 .089.218.308.313.539.271 .237-.045.23-.303.403-.473 .146-.143.355-.137.404-.336 .062-.255-.18-.399-.403-.536" fill="#faa"/>
 <path d="m89.06099,17.46285c.149-.135.235-.273.203-.471-.039-.24-.293-.242-.471-.404-.246-.227-.354-.386-.607-.606-.223-.197-.351-.312-.604-.471s-.392-.417-.672-.337c-.329.092-.374.469-.338.808 .054.481.579.489.942.809 .238.208.323.399.606.538 .332.163.668.384.941.134" fill="#faa"/>
 <path d="m91.62199,19.21285c.083-.307-.218-.446-.338-.74-.115-.285-.004-.584-.269-.741-.162-.094-.303-.14-.473-.066-.251.108-.197.397-.202.673-.004.332.07.543.269.809 .193.255.371.575.675.471 .193-.068.283-.207.338-.406" fill="#faa"/>
 <path d="m89.66799,19.34785c-.244-.053-.38-.095-.607-.201-.256-.123-.446-.641-.603-.404-.088.131.014.248 0,.404-.024.215-.168.324-.137.538 .058.369.389.483.739.604 .399.141.726.16 1.08-.066 .156-.1.287-.157.335-.336 .05-.185-.002-.334-.135-.473-.181-.188-.414-.011-.672-.066" fill="#faa"/>
 <path d="m88.92599,24.06085c.081.021.047-.016-.021-.079l-.112.013c.053.024.078.05.133.066" fill="#faa"/>
 <path d="m89.33299,23.52085c-.17-.203-.595-.184-.674.066-.039.124.143.292.246.394l.493-.056c-.026-.157.035-.281-.065-.404" fill="#faa"/>
 <path d="m92.69799,21.56985c-.221-.042-.345-.092-.539-.203-.242-.137-.313-.636-.537-.471-.138.098-.112.24-.138.404-.041.291-.006.482.138.74 .06.115.088.201.201.27 .181.107.33-.037.536-.068 .291-.043.531.07.74-.135 .162-.156.324-.35.203-.537-.127-.199-.372.043-.604,0" fill="#faa"/>
 <path d="m88.85999,25.54085c-.147-.035-.194-.262-.336-.202-.146.063-.096.247-.065.404 .041.239.16.471.401.472 .205,0 .312-.154.404-.337 .073-.142.168-.279.069-.403-.118-.147-.291.109-.473.066" fill="#faa"/>
 <path d="m99.90099,31.66685c.214-.222.27-.434.27-.739 0-.217.014-.383-.134-.539-.22-.228-.535-.157-.809,0-.265.152-.339.373-.404.672-.072.339-.146.674.135.877 .309.222.678.005.942-.271" fill="#faa"/>
 <path d="m99.76599,32.27285c-.25.101-.476.373-.336.605 .154.257.519-.002.74-.202 .098-.087.192-.139.202-.269 .018-.241-.381-.223-.606-.134" fill="#faa"/>
 <path d="m99.90099,33.61985c-.052.311.634.262.81,0 .115-.176.202-.487 0-.539-.151-.036-.209.119-.338.203-.192.121-.436.113-.472.336" fill="#faa"/>
 <path d="m100.23799,74.95385c-.21.086-.271.235-.473.336-.267.135-.447.15-.74.203-.284.051-.479.193-.739.066s-.439-.324-.405-.605c.03-.239.298-.254.405-.471 .183-.378.303-.789 0-1.077-.147-.138-.273-.214-.473-.202-.296.018-.314.342-.54.537-.224.199-.375.663-.603.473-.184-.151-.109-.396 0-.605 .091-.184.29-.166.402-.338 .147-.223.118-.405.135-.672 .017-.289-.115-.455-.069-.741 .039-.222.192-.314.203-.538 .008-.16.005-.262-.068-.404-.093-.182-.245-.205-.402-.337-.186-.155-.24-.333-.473-.403s-.394-.044-.604.067c-.215.113-.276.266-.404.471-.148.239-.189.401-.268.673-.088.308-.263.516-.135.809 .158.365 1.031.014.942.404-.058.255-.387.189-.54.403-.175.243-.159.444-.201.739-.05.34.014.535 0,.877s.066.559-.066.875c-.103.242-.241.332-.405.538-.298.38-.498.571-.808.942-.238.286-.317.504-.606.74-.418.344-.812.265-1.277.539-.277.162-.463.23-.676.471-.231.264-.504.471-.401.809 .084.287.381.272.604.471s.536.242.538.539c.001.211-.161.289-.268.471-.127.213-.17.357-.339.539-.229.252-.446.291-.739.472-.261.16-.552.122-.672.403-.118.27-.063.521.135.74 .278.314.66.061 1.076,0 .377-.055.599-.1.94-.269 .354-.175.515-.345.81-.606 .223-.196.345-.313.539-.538 .17-.199.168-.422.401-.539 .237-.116.416.048.674,0 .277-.052.54-.021.676-.27 .099-.185-.069-.339 0-.538 .076-.229.234-.297.402-.471 .22-.229.413-.289.606-.539 .229-.299.097-.656.404-.874 .321-.229.614-.056 1.011-.068 .42-.015.702.19 1.075,0 .184-.093.271-.181.404-.337 .204-.242.091-.539.335-.74 .213-.174.472-.019.676-.202 .189-.173.131-.388.269-.606 .149-.236.369-.279.471-.538 .078-.196.066-.327.067-.538 .002-.238.1-.439-.067-.607-.205-.205-.472-.043-.739.066" fill="#faa"/>
 <path d="m68.86599,94.40885c.324.188.541-.232.875-.403 .239-.124.558-.069.604-.337 .031-.163-.022-.279-.134-.404-.209-.235-.554-.188-.807,0-.169.127-.126.316-.27.473-.169.182-.549.088-.54.336 .01.167.127.252.272.335" fill="#faa"/>
 <path d="m89.39899,81.55185c-.254-.051-.353.212-.605.27-.283.063-.664.277-.741,0-.035-.129.052-.203.068-.338 .03-.233.188-.463 0-.604-.207-.156-.368.167-.606.269-.26.109-.438.109-.673.27-.261.178-.323.375-.539.606-.253.271-.383.44-.673.673-.222.178-.369.248-.607.404-.569.375-1.01.444-1.479.942-.246.259-.229.563-.538.741-.254.146-.457.058-.741.133-.298.08-.493.088-.741.27-.241.178-.222.44-.471.606-.207.139-.384.088-.604.202-.171.086-.24.175-.404.27-.297.169-.483.232-.81.335-.357.115-.584.09-.941.202-.27.086-.422.142-.673.27-.37.189-.517.398-.875.606-.256.146-.394.252-.675.337-.377.114-.625-.025-1.01.067-.512.123-.862.208-1.211.605-.231.265-.097.631-.404.808-.229.133-.426-.025-.674.066-.278.107-.355.307-.604.473-.529.35-1.256.079-1.481.673-.074.197.051.363-.065.538-.208.305-.687-.195-.944.067-.139.144-.127.286-.203.472-.052.131-.181.203-.134.338 .058.154.243.1.404.134 .308.065.537-.163.808,0 .127.076.171.159.27.269 .111.125.175.199.271.338 .119.174.113.327.269.471 .367.338.791.047 1.277-.068 .356-.084.542-.189.877-.336 .375-.165.581-.271.942-.471 .35-.195.521-.353.875-.539 .405-.215.714-.191 1.078-.472 .322-.25.401-.499.672-.808 .304-.35.438-.593.808-.875 .244-.187.436-.211.674-.404 .172-.141.222-.276.404-.404 .397-.276.766-.078 1.211-.269 .248-.106.403-.159.606-.337 .153-.135.172-.281.336-.404 .422-.313.835.114 1.347,0 .243-.053.413-.045.607-.201 .244-.2.153-.479.335-.74 .224-.321.397-.484.739-.674 .358-.197.701-.004 1.013-.269 .171-.147.18-.308.335-.472 .221-.232.389-.32.675-.473 .248-.131.406-.176.672-.268 .258-.09.449-.044.673-.201 .215-.153.203-.371.404-.54 .161-.136.305-.14.471-.269 .265-.208.265-.479.537-.674 .233-.163.475-.069.675-.269 .32-.317.445-.821.134-1.145-.111-.11-.191-.172-.341-.201" fill="#faa"/>
</svg>
