<?xml version="1.0" encoding="UTF-8" standalone="no"?>
<!DOCTYPE svg PUBLIC "-//W3C//DTD SVG 1.1//EN" "http://www.w3.org/Graphics/SVG/1.1/DTD/svg11.dtd">
<svg width="100%" height="100%" viewBox="0 0 800 600" version="1.1" xmlns="http://www.w3.org/2000/svg" xmlns:xlink="http://www.w3.org/1999/xlink" xml:space="preserve" xmlns:serif="http://www.serif.com/" style="fill-rule:evenodd;clip-rule:evenodd;stroke-linecap:round;stroke-linejoin:round;stroke-miterlimit:1.5;">
    <g transform="matrix(1,0,0,1,-1724,-2.00001)">
        <g id="ArtBoard3" transform="matrix(1,0,0,1,23.9999,2.00001)">
            <rect x="1700" y="0" width="800" height="600" style="fill:none;"/>
            <g transform="matrix(0.930626,0,0,0.930626,971.008,-32.5072)">
                <circle cx="1222.95" cy="355.457" r="295.5" style="fill:url(#_Linear1);"/>
            </g>
            <g transform="matrix(1,0,0,1,1732,-17.3334)">
                <g transform="matrix(1.8583,0,0,1.8583,-276.012,-274.668)">
                    <path d="M252.372,371.025C261.478,369.81 270.735,366.365 280.536,362.719C288.442,359.778 296.618,356.736 305.421,354.576C305.966,354.442 306.32,353.918 306.24,353.363C306.162,352.825 305.701,352.429 305.162,352.429C305.146,352.429 305.129,352.429 305.112,352.43C284.076,353.384 261.332,358.305 254.591,359.857C255.711,357.476 257.657,353.352 259.459,349.539C265.155,348.771 274.772,347.412 288.735,345.25C304.165,342.855 315.197,343.881 321.733,345.159C322.228,345.255 322.704,344.935 322.8,344.444C322.896,343.95 322.576,343.474 322.081,343.377C315.399,342.067 304.146,341.023 288.456,343.455C275.429,345.472 266.183,346.787 260.389,347.577C260.76,346.792 261.118,346.035 261.452,345.333C262.622,342.855 264.942,341.163 267.656,340.807C276.741,339.622 307.67,336.021 324.245,339.389C340.096,342.61 347.3,355.989 349.27,360.385C348.205,360.503 347.145,360.733 346.093,361.078C343.281,362.008 340.528,363.744 337.923,366.244C337.712,366.14 337.501,366.048 337.295,365.965C336.159,365.507 334.264,364.751 289.308,369.075C274.118,370.53 259.03,372.098 251.124,372.923L251.124,372.452C251.124,371.724 251.649,371.124 252.372,371.025ZM351.09,373.508L350.911,373.508C346.867,373.444 344.376,371.292 341.976,369.208C341.284,368.607 340.611,368.026 339.924,367.509C342.727,364.93 346.487,362.581 350.879,362.581L350.911,362.581C353.146,362.585 355.381,363.189 357.557,364.381C359.072,365.2 360.57,366.309 362.036,367.683C361.427,368.154 360.831,368.677 360.213,369.208C357.771,371.323 355.248,373.508 351.09,373.508ZM377.512,339.389C394.083,336.02 425.018,339.622 434.104,340.807C436.817,341.159 439.137,342.853 440.31,345.341C440.633,346.019 440.981,346.754 441.346,347.525C435.531,346.729 426.405,345.429 413.66,343.455C397.97,341.023 386.717,342.067 380.034,343.377C379.54,343.474 379.22,343.95 379.315,344.444C379.412,344.935 379.888,345.255 380.383,345.159C386.918,343.881 397.951,342.855 413.381,345.25C427.039,347.365 436.538,348.711 442.277,349.488L442.505,349.971C444.24,353.639 446.086,357.543 447.168,359.854C441.861,358.631 424.032,354.733 405.682,353.055C402.417,352.758 399.462,352.554 396.646,352.43L396.339,354.576C399.054,355.243 401.863,356.031 404.692,356.922C410.417,358.704 415.914,360.748 421.229,362.725C431.028,366.368 440.284,369.81 449.39,371.025C450.112,371.122 450.637,371.722 450.637,372.452L450.637,372.881C442.623,372.039 427.801,370.505 412.877,369.075C367.921,364.751 366.021,365.507 364.902,365.956C364.587,366.08 364.28,366.227 363.982,366.387C362.26,364.701 360.474,363.354 358.656,362.37C357.671,361.829 356.673,361.399 355.67,361.069C354.616,360.724 353.551,360.497 352.484,360.383C352.519,360.308 352.554,360.229 352.593,360.146C353.378,358.399 355.143,354.929 358.13,351.291C363.366,344.94 369.888,340.937 377.512,339.389ZM456.725,373.521C456.668,373.518 455.253,373.366 452.815,373.109L452.815,372.452C452.815,370.645 451.466,369.104 449.677,368.866C440.814,367.683 431.671,364.282 421.989,360.683C420.744,360.22 419.488,359.753 418.223,359.287C435.24,364.616 447.295,366.098 447.413,366.111C447.45,366.116 447.487,366.121 447.523,366.121C447.977,366.121 448.371,365.782 448.426,365.319C448.485,364.82 448.128,364.367 447.629,364.308C447.51,364.294 435.433,362.805 418.391,357.433C416.959,356.982 415.535,356.564 414.12,356.172C429.233,358.085 442.6,361.033 446.851,362.017C447.637,362.198 448.441,361.922 448.948,361.294C449.457,360.665 449.559,359.819 449.216,359.088C448.145,356.799 446.252,352.796 444.475,349.039L444.236,348.535C444.027,348.091 443.82,347.652 443.619,347.236C443.146,346.232 442.691,345.272 442.278,344.407C440.789,341.248 437.839,339.095 434.386,338.646C425.215,337.45 393.979,333.816 377.078,337.253C372.814,338.118 368.882,339.709 365.299,341.992C363.863,342.907 356.271,347.157 352.152,355.766C352.164,355.622 350.983,358.003 350.263,356.919C346.974,351.964 342.603,345.977 336.588,342.099C333.304,339.982 329.356,338.204 324.679,337.253C307.772,333.817 276.543,337.451 267.374,338.646C263.92,339.1 260.97,341.251 259.482,344.401C257.303,348.998 254.076,355.83 252.547,359.083C252.201,359.813 252.301,360.658 252.806,361.287C253.311,361.919 254.115,362.2 254.909,362.02C259.354,360.993 271.464,358.339 285.415,356.463C284.706,356.674 283.996,356.885 283.282,357.109C266.238,362.485 254.16,363.971 254.04,363.985C253.542,364.045 253.186,364.497 253.245,364.996C253.301,365.458 253.693,365.797 254.147,365.797C254.184,365.797 254.22,365.795 254.257,365.791C254.378,365.776 266.609,364.274 283.829,358.845C285.467,358.328 287.093,357.856 288.706,357.419C285.682,358.487 282.707,359.587 279.776,360.678C270.094,364.279 260.946,367.683 252.081,368.866C250.293,369.109 248.945,370.65 248.945,372.452L248.945,373.152C246.77,373.384 245.516,373.518 245.464,373.521C243.962,373.687 242.881,375.033 243.042,376.531C243.193,377.928 244.375,378.968 245.753,378.968C245.849,378.968 245.945,378.958 246.042,378.949C278.036,375.523 330.274,370.394 335.422,371.09C335.532,371.145 335.651,371.209 335.784,371.287C336.563,371.74 337.456,372.51 338.399,373.329C341.115,375.684 344.829,378.903 350.911,378.963C350.971,378.968 351.03,378.968 351.09,378.968C357.286,378.968 361.047,375.706 363.785,373.329C364.729,372.51 365.622,371.74 366.428,371.273C366.542,371.2 366.652,371.145 366.762,371.09C371.9,370.39 424.144,375.523 456.143,378.949C456.239,378.958 456.34,378.968 456.436,378.968C457.814,378.968 458.996,377.928 459.143,376.531C459.308,375.033 458.222,373.687 456.725,373.521Z" style="fill:white;fill-rule:nonzero;"/>
                </g>
                <g transform="matrix(1.8583,0,0,1.8583,-276.012,-274.668)">
                    <path d="M364.342,362.903C364.575,362.903 364.81,362.813 364.986,362.635C371.87,355.713 391.275,360.415 391.471,360.463C391.956,360.584 392.451,360.286 392.572,359.799C392.692,359.312 392.396,358.818 391.908,358.698C391.069,358.49 371.304,353.702 363.697,361.353C363.343,361.709 363.345,362.284 363.701,362.639C363.878,362.814 364.11,362.903 364.342,362.903Z" style="fill:white;fill-rule:nonzero;"/>
                </g>
                <g transform="matrix(1.8583,0,0,1.8583,-276.012,-274.668)">
                    <path d="M310.646,360.463C310.841,360.415 330.246,355.713 337.129,362.635C337.307,362.813 337.54,362.903 337.773,362.903C338.006,362.903 338.237,362.814 338.415,362.639C338.771,362.284 338.772,361.709 338.418,361.353C330.813,353.702 311.046,358.49 310.208,358.698C309.721,358.818 309.424,359.312 309.544,359.799C309.665,360.286 310.159,360.584 310.646,360.463Z" style="fill:white;fill-rule:nonzero;"/>
                </g>
            </g>
            <g transform="matrix(1,0,0,1,1721.33,-26.6667)">
                <g transform="matrix(0.550563,0,0,0.550563,170.46,41.8602)">
                    <path d="M390.289,194.125C439.455,194.125 485.026,213.04 518.649,243.668L510.327,246.949L506.527,250.979L507.447,255.7L512.052,256.394L514.818,263.3L522.763,260.075L524.029,269.405L521.728,269.405L515.163,268.481L507.912,269.635L500.887,279.536L490.87,281.147L489.485,289.668L493.746,290.707L492.481,296.233L482.579,294.159L473.368,296.233L471.523,301.299L473.019,311.89L478.434,314.425L487.415,314.31L493.4,313.85L495.36,309.015L504.802,296.693L511.018,297.959L517.123,292.433L518.273,296.693L533.356,306.94L531.515,309.474L524.719,309.015L527.369,312.815L531.515,313.735L536.465,311.66L536.351,305.674L538.54,304.639L536.811,302.794L526.679,297.153L524.029,289.668L532.435,289.668L535.085,292.318L542.34,298.534L542.685,306.019L550.167,314.08L552.932,303.14L558.112,300.264L559.033,309.245L564.102,314.77L566.173,314.77C568.248,320.066 570.203,325.481 571.814,330.892L562.948,330.892L553.507,323.981L543.605,324.902L543.605,330.892L540.496,330.892L537.155,328.472L519.883,324.212L519.883,313.045L498.236,314.77L491.445,318.341L482.81,318.341L478.664,317.995L468.184,323.751L468.184,334.692L446.766,350.119L448.496,356.684L452.871,356.684L451.717,363.016L448.726,364.17L448.496,380.517L467.033,401.594L475.094,401.594L475.554,400.324L490.061,400.324L494.206,396.409L502.382,396.409L506.987,401.014L519.193,402.284L517.583,418.517L531.17,442.469L523.914,456.17L524.489,462.62L530.134,468.146L530.134,483.692L537.501,493.594L537.76,504.158C502.986,547.338 450.569,574.341 390.808,574.341C292.703,574.341 210.951,499.465 201.161,403.894C201.046,402.398 200.931,400.899 200.815,399.404L200.815,399.289C200.355,394.453 200.24,389.502 200.24,384.432L200.24,381.097L200.355,378.332L200.47,375.567L200.47,373.956C200.585,372.691 200.585,371.537 200.7,370.386L200.815,369.466C202.43,348.279 207.611,328.127 215.671,309.359L215.671,319.721L223.732,323.637L223.732,338.953L231.444,352.079L237.664,352.999L238.469,348.509L231.099,337.108L229.603,326.056L233.978,326.056L235.819,337.453L246.53,352.999L243.765,358.065L250.56,368.431L267.487,372.691L267.487,369.926L274.163,370.961L273.588,375.797L278.884,376.721L287.06,379.022L298.69,392.148L313.427,393.303L314.927,405.39L304.791,412.415L304.331,423.241L302.836,429.802L317.458,448.109L318.612,454.444C318.612,454.444 323.908,455.825 324.598,455.825C325.173,455.825 336.459,464.461 336.459,464.461L336.459,497.509L340.489,498.659L337.725,513.975L344.52,522.957L343.251,538.153L352.231,553.814L363.632,563.831L375.148,563.946L376.298,560.261L367.777,553.125L368.353,549.67L369.848,545.294L370.197,540.918L364.438,540.688L361.558,537.118L366.282,532.512L366.972,529.057L361.677,527.561L361.907,524.337L369.503,523.186L381.019,517.656L384.819,510.52L396.91,495.089L394.145,482.998L397.945,476.667L409.001,476.896L416.482,471.026L418.902,447.764L427.193,437.173L428.574,430.492L421.089,428.076L416.022,419.786L398.981,419.671L385.51,414.49L384.819,404.814L380.329,396.984L368.123,396.754L361.097,385.702L354.766,382.707L354.421,386.047L343.021,386.738L338.875,380.863L326.899,378.447L317.112,389.848L301.686,387.198L300.531,369.811L289.249,367.851L293.855,359.33L292.47,354.38L277.733,364.285L268.407,363.246L265.067,355.879L267.142,348.393L272.208,338.953L284.068,332.963L306.866,332.963L306.866,339.873L315.042,343.673L314.352,331.812L320.338,325.826L332.199,317.995L333.119,312.47L344.98,300.148L357.646,293.123L356.492,292.203L365.128,284.142L368.238,284.947L369.618,286.792L372.958,283.221L373.764,282.762L370.197,282.302L366.512,281.147L366.512,277.577L368.468,276.081L372.728,275.966L374.573,276.887L376.298,280.227L378.369,279.997L378.369,279.652L378.948,279.882L384.819,278.961L385.74,275.966L389.08,276.887L389.08,279.997L385.97,282.186L386.43,285.638L397.141,288.977L397.141,289.093L399.671,288.863L399.786,284.257L391.266,280.342L390.805,278.041L397.831,275.736L398.176,268.941L390.805,264.451L390.345,253.054L380.214,258.004L376.528,258.004L377.449,249.253L363.632,246.028L357.991,250.289L357.991,263.53L347.741,266.755L343.596,275.276L339.105,276.081L339.105,265.03L329.549,263.76L324.713,260.535L322.753,253.514L340.025,243.382L348.431,240.847L349.24,246.488L353.961,246.258L354.306,243.382L359.257,242.688L359.372,241.653L357.186,240.847L356.722,237.852L362.827,237.277L366.512,233.477L366.627,233.247L366.742,233.247L367.777,232.097L380.559,230.486L386.085,235.207L371.348,243.148L390.115,247.524L392.535,241.308L400.711,241.308L403.701,235.782L397.831,234.397L397.831,227.491L379.753,219.431L367.202,220.811L360.062,224.496L360.522,233.592L353.156,232.442L352.001,227.491L359.142,221.041L346.245,220.35L342.56,221.501L340.95,225.762L345.785,226.686L344.75,231.406L336.574,231.981L335.305,235.207L323.448,235.437C323.448,235.437 323.102,228.757 322.643,228.757C322.178,228.757 331.969,228.526 331.969,228.526L338.99,221.616L335.189,219.661L330.009,224.726L321.488,224.266L316.307,217.126L305.367,217.126L293.97,225.646L304.446,225.646L305.367,228.757L302.721,231.291L314.233,231.637L316.077,235.782L302.951,235.322L302.375,232.097L294.2,230.367L289.824,227.951L282.799,227.951C313.197,207.109 350.565,194.125 390.289,194.125Z" style="fill:white;"/>
                </g>
                <g transform="matrix(1.23841,0,0,1.23841,-14.8188,17.9458)">
                    <circle cx="323.245" cy="190.245" r="84.5" style="fill:none;stroke:white;stroke-width:3.23px;"/>
                </g>
            </g>
        </g>
    </g>
    <defs>
        <linearGradient id="_Linear1" x1="0" y1="0" x2="1" y2="0" gradientUnits="userSpaceOnUse" gradientTransform="matrix(462.054,342.78,-342.78,462.054,989.777,203.946)"><stop offset="0" style="stop-color:rgb(137,217,157);stop-opacity:1"/><stop offset="1" style="stop-color:rgb(22,71,115);stop-opacity:1"/></linearGradient>
    </defs>
</svg>
