<?xml version="1.0" encoding="UTF-8" standalone="no"?>
<!DOCTYPE svg PUBLIC "-//W3C//DTD SVG 1.1//EN" "http://www.w3.org/Graphics/SVG/1.1/DTD/svg11.dtd">
<svg width="100%" height="100%" viewBox="0 0 220 218" version="1.1" xmlns="http://www.w3.org/2000/svg" xmlns:xlink="http://www.w3.org/1999/xlink" xml:space="preserve" xmlns:serif="http://www.serif.com/" style="fill-rule:evenodd;clip-rule:evenodd;stroke-linejoin:round;stroke-miterlimit:2;">
    <g transform="matrix(1,0,0,1,-909.797,-288.441)">
        <g id="geo-stories_logo_black.svg" transform="matrix(1,0,0,1,1014.8,472.441)">
            <clipPath id="_clip1">
                <rect x="-105" y="-184" width="220" height="218"/>
            </clipPath>
            <g clip-path="url(#_clip1)">
                <g transform="matrix(1,0,0,1,-400,-300)">
                    <g transform="matrix(1,0,0,1,-3423,0)">
                        <rect id="ArtBoard5" x="3423" y="0" width="800" height="600" style="fill:none;"/>
                        <g transform="matrix(0.984881,0,0,0.984881,3448.58,-21.251)">
                            <g id="ArtBoard51" serif:id="ArtBoard5">
                                <g>
                                    <g transform="matrix(0.550563,0,0,0.550563,170.46,41.8602)">
                                        <path d="M390.289,194.125C439.455,194.125 485.026,213.04 518.649,243.668L510.327,246.949L506.527,250.979L507.447,255.7L512.052,256.394L514.818,263.3L522.763,260.075L524.029,269.405L521.728,269.405L515.163,268.481L507.912,269.635L500.887,279.536L490.87,281.147L489.485,289.668L493.746,290.707L492.481,296.233L482.579,294.159L473.368,296.233L471.523,301.299L473.019,311.89L478.434,314.425L487.415,314.31L493.4,313.85L495.36,309.015L504.802,296.693L511.018,297.959L517.123,292.433L518.273,296.693L533.356,306.94L531.515,309.474L524.719,309.015L527.369,312.815L531.515,313.735L536.465,311.66L536.351,305.674L538.54,304.639L536.811,302.794L526.679,297.153L524.029,289.668L532.435,289.668L535.085,292.318L542.34,298.534L542.685,306.019L550.167,314.08L552.932,303.14L558.112,300.264L559.033,309.245L564.102,314.77L566.173,314.77C568.248,320.066 570.203,325.481 571.814,330.892L562.948,330.892L553.507,323.981L543.605,324.902L543.605,330.892L540.496,330.892L537.155,328.472L519.883,324.212L519.883,313.045L498.236,314.77L491.445,318.341L482.81,318.341L478.664,317.995L468.184,323.751L468.184,334.692L446.766,350.119L448.496,356.684L452.871,356.684L451.717,363.016L448.726,364.17L448.496,380.517L467.033,401.594L475.094,401.594L475.554,400.324L490.061,400.324L494.206,396.409L502.382,396.409L506.987,401.014L519.193,402.284L517.583,418.517L531.17,442.469L523.914,456.17L524.489,462.62L530.134,468.146L530.134,483.692L537.501,493.594L537.76,504.158C502.986,547.338 450.569,574.341 390.808,574.341C292.703,574.341 210.951,499.465 201.161,403.894C201.046,402.398 200.931,400.899 200.815,399.404L200.815,399.289C200.355,394.453 200.24,389.502 200.24,384.432L200.24,381.097L200.47,375.567L200.47,373.956C200.585,372.691 200.585,371.537 200.7,370.386L200.815,369.466C202.43,348.279 207.611,328.127 215.671,309.359L215.671,319.721L223.732,323.637L223.732,338.953L231.444,352.079L237.664,352.999L238.469,348.509L231.099,337.108L229.603,326.056L233.978,326.056L235.819,337.453L246.53,352.999L243.765,358.065L250.56,368.431L267.487,372.691L267.487,369.926L274.163,370.961L273.588,375.797L278.884,376.721L287.06,379.022L298.69,392.148L313.427,393.303L314.927,405.39L304.791,412.415L304.331,423.241L302.836,429.802L317.458,448.109L318.612,454.444C318.612,454.444 323.908,455.825 324.598,455.825C325.173,455.825 336.459,464.461 336.459,464.461L336.459,497.509L340.489,498.659L337.725,513.975L344.52,522.957L343.251,538.153L352.231,553.814L363.632,563.831L375.148,563.946L376.298,560.261L367.777,553.125L368.353,549.67L369.848,545.294L370.197,540.918L364.438,540.688L361.558,537.118L366.282,532.512L366.972,529.057L361.677,527.561L361.907,524.337L369.503,523.186L381.019,517.656L384.819,510.52L396.91,495.089L394.145,482.998L397.945,476.667L409.001,476.896L416.482,471.026L418.902,447.764L427.193,437.173L428.574,430.492L421.089,428.076L416.022,419.786L398.981,419.671L385.51,414.49L384.819,404.814L380.329,396.984L368.123,396.754L361.097,385.702L354.766,382.707L354.421,386.047L343.021,386.738L338.875,380.863L326.899,378.447L317.112,389.848L301.686,387.198L300.531,369.811L289.249,367.851L293.855,359.33L292.47,354.38L277.733,364.285L268.407,363.246L265.067,355.879L267.142,348.393L272.208,338.953L284.068,332.963L306.866,332.963L306.866,339.873L315.042,343.673L314.352,331.812L320.338,325.826L332.199,317.995L333.119,312.47L344.98,300.148L357.646,293.123L356.492,292.203L365.128,284.142L368.238,284.947L369.618,286.792L372.958,283.221L373.764,282.762L370.197,282.302L366.512,281.147L366.512,277.577L368.468,276.081L372.728,275.966L374.573,276.887L376.298,280.227L378.369,279.997L378.369,279.652L378.948,279.882L384.819,278.961L385.74,275.966L389.08,276.887L389.08,279.997L385.97,282.186L386.43,285.638L397.141,288.977L397.141,289.093L399.671,288.863L399.786,284.257L391.266,280.342L390.805,278.041L397.831,275.736L398.176,268.941L390.805,264.451L390.345,253.054L380.214,258.004L376.528,258.004L377.449,249.253L363.632,246.028L357.991,250.289L357.991,263.53L347.741,266.755L343.596,275.276L339.105,276.081L339.105,265.03L329.549,263.76L324.713,260.535L322.753,253.514L340.025,243.382L348.431,240.847L349.24,246.488L353.961,246.258L354.306,243.382L359.257,242.688L359.372,241.653L357.186,240.847L356.722,237.852L362.827,237.277L366.512,233.477L366.627,233.247L366.742,233.247L367.777,232.097L380.559,230.486L386.085,235.207L371.348,243.148L390.115,247.524L392.535,241.308L400.711,241.308L403.701,235.782L397.831,234.397L397.831,227.491L379.753,219.431L367.202,220.811L360.062,224.496L360.522,233.592L353.156,232.442L352.001,227.491L359.142,221.041L346.245,220.35L342.56,221.501L340.95,225.762L345.785,226.686L344.75,231.406L336.574,231.981L335.305,235.207L323.448,235.437C323.448,235.437 323.102,228.757 322.643,228.757C322.178,228.757 331.969,228.526 331.969,228.526L338.99,221.616L335.189,219.661L330.009,224.726L321.488,224.266L316.307,217.126L305.367,217.126L293.97,225.646L304.446,225.646L305.367,228.757L302.721,231.291L314.233,231.637L316.077,235.782L302.951,235.322L302.375,232.097L294.2,230.367L289.824,227.951L282.799,227.951C313.197,207.109 350.565,194.125 390.289,194.125Z" style="fill:rgb(255,205,41);stroke:black;stroke-width:1.84px;"/>
                                    </g>
                                    <g transform="matrix(1.25343,0,0,1.25343,-18.4047,14.8344)">
                                        <circle cx="323.245" cy="190.245" r="84.5" style="fill:none;stroke:black;stroke-width:0.81px;stroke-linecap:round;stroke-miterlimit:1.5;"/>
                                    </g>
                                </g>
                            </g>
                        </g>
                    </g>
                </g>
            </g>
        </g>
    </g>
</svg>
