<?xml version="1.0" encoding="UTF-8" standalone="no"?>
<!DOCTYPE svg PUBLIC "-//W3C//DTD SVG 1.1//EN" "http://www.w3.org/Graphics/SVG/1.1/DTD/svg11.dtd">
<svg width="100%" height="100%" viewBox="0 0 1925 40" version="1.1" xmlns="http://www.w3.org/2000/svg" xmlns:xlink="http://www.w3.org/1999/xlink" xml:space="preserve" xmlns:serif="http://www.serif.com/" style="fill-rule:evenodd;clip-rule:evenodd;stroke-linejoin:round;stroke-miterlimit:2;">
    <g transform="matrix(1,0,0,1,5,-584.555)">
        <g>
            <g transform="matrix(1.26291,0,0,1,-16.5927,525.975)">
                <path d="M9.179,74.58C30.294,74.58 51.409,58.58 72.525,58.58L72.526,58.58C93.641,58.58 114.756,74.58 135.871,74.58L135.872,74.58C156.987,74.579 178.102,58.58 199.217,58.58L199.218,58.58C220.333,58.58 241.448,74.58 262.563,74.58L262.564,74.58C283.679,74.579 304.794,58.58 325.909,58.58L325.91,58.58C347.025,58.58 368.14,74.58 389.255,74.58L389.256,74.58C410.371,74.579 431.486,58.58 452.601,58.58L452.602,58.58C473.717,58.58 494.832,74.58 515.947,74.58L515.947,97.747L515.946,97.747C494.831,97.747 473.716,81.747 452.601,81.747L452.6,81.747C431.485,81.747 410.37,97.747 389.255,97.747L389.254,97.747C368.139,97.747 347.024,81.747 325.909,81.747L325.908,81.747C304.793,81.747 283.678,97.747 262.563,97.747L262.562,97.747C241.447,97.747 220.332,81.747 199.217,81.747L199.216,81.747C178.101,81.747 156.986,97.747 135.871,97.747L135.87,97.747C114.755,97.747 93.64,81.747 72.525,81.747L72.525,81.747C51.41,81.747 30.295,97.747 9.18,97.747L9.18,74.58" style="fill:rgb(59,140,110);fill-rule:nonzero;"/>
            </g>
            <g transform="matrix(1.26291,0,0,1,622.407,525.975)">
                <path d="M9.179,74.58C30.294,74.58 51.409,58.58 72.525,58.58L72.526,58.58C93.641,58.58 114.756,74.58 135.871,74.58L135.872,74.58C156.987,74.579 178.102,58.58 199.217,58.58L199.218,58.58C220.333,58.58 241.448,74.58 262.563,74.58L262.564,74.58C283.679,74.579 304.794,58.58 325.909,58.58L325.91,58.58C347.025,58.58 368.14,74.58 389.255,74.58L389.256,74.58C410.371,74.579 431.486,58.58 452.601,58.58L452.602,58.58C473.717,58.58 494.832,74.58 515.947,74.58L515.947,97.747L515.946,97.747C494.831,97.747 473.716,81.747 452.601,81.747L452.6,81.747C431.485,81.747 410.37,97.747 389.255,97.747L389.254,97.747C368.139,97.747 347.024,81.747 325.909,81.747L325.908,81.747C304.793,81.747 283.678,97.747 262.563,97.747L262.562,97.747C241.447,97.747 220.332,81.747 199.217,81.747L199.216,81.747C178.101,81.747 156.986,97.747 135.871,97.747L135.87,97.747C114.755,97.747 93.64,81.747 72.525,81.747L72.525,81.747C51.41,81.747 30.295,97.747 9.18,97.747L9.18,74.58" style="fill:rgb(59,140,110);fill-rule:nonzero;"/>
            </g>
            <g transform="matrix(1.27672,0,0,1,1261.28,525.975)">
                <path d="M9.179,74.58C30.294,74.58 51.409,58.58 72.525,58.58L72.526,58.58C93.641,58.58 114.756,74.58 135.871,74.58L135.872,74.58C156.987,74.579 178.102,58.58 199.217,58.58L199.218,58.58C220.333,58.58 241.448,74.58 262.563,74.58L262.564,74.58C283.679,74.579 304.794,58.58 325.909,58.58L325.91,58.58C347.025,58.58 368.14,74.58 389.255,74.58L389.256,74.58C410.371,74.579 431.486,58.58 452.601,58.58L452.602,58.58C473.717,58.58 494.832,74.58 515.947,74.58L515.947,97.747L515.946,97.747C494.831,97.747 473.716,81.747 452.601,81.747L452.6,81.747C431.485,81.747 410.37,97.747 389.255,97.747L389.254,97.747C368.139,97.747 347.024,81.747 325.909,81.747L325.908,81.747C304.793,81.747 283.678,97.747 262.563,97.747L262.562,97.747C241.447,97.747 220.332,81.747 199.217,81.747L199.216,81.747C178.101,81.747 156.986,97.747 135.871,97.747L135.87,97.747C114.755,97.747 93.64,81.747 72.525,81.747L72.525,81.747C51.41,81.747 30.295,97.747 9.18,97.747L9.18,74.58" style="fill:rgb(59,140,110);fill-rule:nonzero;"/>
            </g>
        </g>
    </g>
</svg>
