<?xml version="1.0" encoding="UTF-8" standalone="no"?>
<!DOCTYPE svg PUBLIC "-//W3C//DTD SVG 1.1//EN" "http://www.w3.org/Graphics/SVG/1.1/DTD/svg11.dtd">
<svg width="100%" height="100%" viewBox="0 0 1920 40" version="1.1" xmlns="http://www.w3.org/2000/svg" xmlns:xlink="http://www.w3.org/1999/xlink" xml:space="preserve" xmlns:serif="http://www.serif.com/" style="fill-rule:evenodd;clip-rule:evenodd;stroke-linejoin:round;stroke-miterlimit:2;">
    <g transform="matrix(1,0,0,1,0,-448.77)">
        <g>
            <g transform="matrix(1.26291,0,0,1,-11.5927,349)">
                <path d="M9.179,115.77C30.294,115.77 51.409,99.77 72.525,99.77L72.526,99.77C93.641,99.77 114.756,115.77 135.871,115.77L135.872,115.77C156.987,115.77 178.102,99.77 199.217,99.77L199.218,99.77C220.333,99.77 241.448,115.77 262.563,115.77L262.564,115.77C283.679,115.77 304.794,99.77 325.909,99.77L325.909,99.77C347.024,99.77 368.139,115.77 389.254,115.77L389.255,115.77C410.37,115.77 431.485,99.77 452.6,99.77L452.601,99.77C473.716,99.77 494.831,115.77 515.946,115.77L515.946,138.937L515.945,138.937C494.83,138.937 473.715,122.937 452.6,122.937L452.599,122.937C431.484,122.937 410.369,138.937 389.254,138.937L389.254,138.937C368.139,138.937 347.024,122.937 325.909,122.937L325.908,122.937C304.793,122.937 283.678,138.937 262.563,138.937L262.562,138.937C241.447,138.937 220.332,122.937 199.217,122.937L199.216,122.937C178.101,122.937 156.986,138.937 135.871,138.937L135.87,138.937C114.755,138.937 93.64,122.937 72.525,122.937L72.525,122.937C51.41,122.937 30.295,138.937 9.18,138.937L9.18,115.77" style="fill:rgb(12,37,119);fill-rule:nonzero;"/>
            </g>
            <g transform="matrix(1.26291,0,0,1,627.407,349)">
                <path d="M9.179,115.77C30.294,115.77 51.409,99.77 72.525,99.77L72.526,99.77C93.641,99.77 114.756,115.77 135.871,115.77L135.872,115.77C156.987,115.77 178.102,99.77 199.217,99.77L199.218,99.77C220.333,99.77 241.448,115.77 262.563,115.77L262.564,115.77C283.679,115.77 304.794,99.77 325.909,99.77L325.909,99.77C347.024,99.77 368.139,115.77 389.254,115.77L389.255,115.77C410.37,115.77 431.485,99.77 452.6,99.77L452.601,99.77C473.716,99.77 494.831,115.77 515.946,115.77L515.946,138.937L515.945,138.937C494.83,138.937 473.715,122.937 452.6,122.937L452.599,122.937C431.484,122.937 410.369,138.937 389.254,138.937L389.254,138.937C368.139,138.937 347.024,122.937 325.909,122.937L325.908,122.937C304.793,122.937 283.678,138.937 262.563,138.937L262.562,138.937C241.447,138.937 220.332,122.937 199.217,122.937L199.216,122.937C178.101,122.937 156.986,138.937 135.871,138.937L135.87,138.937C114.755,138.937 93.64,122.937 72.525,122.937L72.525,122.937C51.41,122.937 30.295,138.937 9.18,138.937L9.18,115.77" style="fill:rgb(12,37,119);fill-rule:nonzero;"/>
            </g>
            <g transform="matrix(1.26686,0,0,1,1266.37,349)">
                <path d="M9.179,115.77C30.294,115.77 51.409,99.77 72.525,99.77L72.526,99.77C93.641,99.77 114.756,115.77 135.871,115.77L135.872,115.77C156.987,115.77 178.102,99.77 199.217,99.77L199.218,99.77C220.333,99.77 241.448,115.77 262.563,115.77L262.564,115.77C283.679,115.77 304.794,99.77 325.909,99.77L325.909,99.77C347.024,99.77 368.139,115.77 389.254,115.77L389.255,115.77C410.37,115.77 431.485,99.77 452.6,99.77L452.601,99.77C473.716,99.77 494.831,115.77 515.946,115.77L515.946,138.937L515.945,138.937C494.83,138.937 473.715,122.937 452.6,122.937L452.599,122.937C431.484,122.937 410.369,138.937 389.254,138.937L389.254,138.937C368.139,138.937 347.024,122.937 325.909,122.937L325.908,122.937C304.793,122.937 283.678,138.937 262.563,138.937L262.562,138.937C241.447,138.937 220.332,122.937 199.217,122.937L199.216,122.937C178.101,122.937 156.986,138.937 135.871,138.937L135.87,138.937C114.755,138.937 93.64,122.937 72.525,122.937L72.525,122.937C51.41,122.937 30.295,138.937 9.18,138.937L9.18,115.77" style="fill:rgb(12,37,119);fill-rule:nonzero;"/>
            </g>
        </g>
    </g>
</svg>
